<svg xmlns="http://www.w3.org/2000/svg" xmlns:xlink="http://www.w3.org/1999/xlink" width="3855" zoomAndPan="magnify" viewBox="0 0 2891.25 1133.999944" height="1511" preserveAspectRatio="xMidYMid meet" version="1.0"><defs><g/><clipPath id="d9b1954242"><path d="M 340.613281 124.058594 L 962.203125 124.058594 L 962.203125 822.128906 L 340.613281 822.128906 Z M 340.613281 124.058594 " clip-rule="nonzero"/></clipPath><clipPath id="4a33dfc3c6"><path d="M 397 828 L 541 828 L 541 1103.492188 L 397 1103.492188 Z M 397 828 " clip-rule="nonzero"/></clipPath><clipPath id="4d5db67106"><path d="M 379 835 L 518 835 L 518 1100.691406 L 379 1100.691406 Z M 379 835 " clip-rule="nonzero"/></clipPath><clipPath id="5a268d5c5b"><path d="M 1281.636719 113.503906 L 1903.226562 113.503906 L 1903.226562 811.574219 L 1281.636719 811.574219 Z M 1281.636719 113.503906 " clip-rule="nonzero"/></clipPath><clipPath id="c0d741017f"><path d="M 1338 817 L 1482 817 L 1482 1092.9375 L 1338 1092.9375 Z M 1338 817 " clip-rule="nonzero"/></clipPath><clipPath id="99259f56a3"><path d="M 941.023438 781 L 1256 781 L 1256 1024 L 941.023438 1024 Z M 941.023438 781 " clip-rule="nonzero"/></clipPath><clipPath id="a3806da2e5"><path d="M 2240.636719 124.414062 L 2862.222656 124.414062 L 2862.222656 822.480469 L 2240.636719 822.480469 Z M 2240.636719 124.414062 " clip-rule="nonzero"/></clipPath><clipPath id="217a28b92f"><path d="M 2297 848 L 2441 848 L 2441 1123.128906 L 2297 1123.128906 Z M 2297 848 " clip-rule="nonzero"/></clipPath><clipPath id="626fe68c9b"><path d="M 1897.1875 804 L 2219 804 L 2219 1053 L 1897.1875 1053 Z M 1897.1875 804 " clip-rule="nonzero"/></clipPath><clipPath id="72aa321d3e"><path d="M 2285 849 L 2427 849 L 2427 1120.1875 L 2285 1120.1875 Z M 2285 849 " clip-rule="nonzero"/></clipPath><clipPath id="81e8d0cb82"><path d="M 381 822 L 521 822 L 521 1089.101562 L 381 1089.101562 Z M 381 822 " clip-rule="nonzero"/></clipPath><clipPath id="fbc792db0a"><path d="M 1325 814 L 1466 814 L 1466 1081.378906 L 1325 1081.378906 Z M 1325 814 " clip-rule="nonzero"/></clipPath><clipPath id="dd526627c6"><path d="M 2284 833 L 2425 833 L 2425 1100.175781 L 2284 1100.175781 Z M 2284 833 " clip-rule="nonzero"/></clipPath></defs><path fill="#f9f9f9" d="M 651.566406 131.632812 L 348.722656 283.054688 L 651.566406 434.476562 L 954.410156 283.054688 Z M 651.566406 131.632812 " fill-opacity="1" fill-rule="nonzero"/><path fill="#e80303" d="M 651.566406 434.476562 L 651.566406 813.03125 L 954.410156 661.609375 L 954.410156 283.050781 Z M 651.566406 434.476562 " fill-opacity="1" fill-rule="nonzero"/><path fill="#cccccc" d="M 651.566406 434.476562 L 651.566406 813.03125 L 348.722656 661.609375 L 348.722656 283.050781 Z M 651.566406 434.476562 " fill-opacity="1" fill-rule="nonzero"/><g clip-path="url(#d9b1954242)"><path stroke-linecap="butt" transform="matrix(15.142238, 0, 0, 15.142238, 197.299211, 95.864107)" fill="none" stroke-linejoin="miter" d="M 30.000003 2.375079 L 10.00007 12.375046 L 10.00007 37.374962 L 30.000003 47.374929 L 49.999936 37.374962 L 49.999936 12.375046 Z M 30.000003 2.375079 " stroke="#4d4d4d" stroke-width="1" stroke-opacity="1" stroke-miterlimit="4"/></g><path stroke-linecap="butt" transform="matrix(0.703126, -0.0905921, 0.0905921, 0.703126, 639.037341, 291.080802)" fill="none" stroke-linejoin="miter" d="M 168.359315 583.992378 L 211.95298 585.075743 L 223.019844 583.996067 L 234.085145 581.160638 L 245.154729 579.542425 L 256.217963 575.084511 L 266.207048 574.004861 L 276.73376 569.011155 L 314.254697 546.33992 L 330.316029 529.737106 L 335.851559 522.044774 L 341.921971 509.899145 L 345.297635 499.91187 L 348.536807 490.595896 L 351.912333 462.93086 L 350.696387 445.246452 L 342.462832 413.124574 L 336.387444 404.352937 L 322.081641 387.754224 L 312.09615 378.845467 L 303.186628 374.391999 L 293.335993 368.317279 L 250.145675 355.091462 L 239.082184 353.471577 L 228.012549 352.934232 L 216.402814 350.638414 L 200.342074 350.635781 L 171.057925 344.562762 L 150.67682 334.714614 L 142.307671 326.886331 L 140.14724 310.280231 L 142.848251 295.439375 L 149.598277 288.281298 L 157.831177 282.075388 L 166.7349 277.217016 L 176.5919 274.920351 L 194.27238 274.381675 L 211.949488 276.54256 L 221.940187 279.374222 L 231.926835 285.988687 L 241.240999 293.683173 L 249.604056 304.749554 L 261.753967 312.037183 L 287.799511 309.74295 L 302.64923 310.822883 L 313.716119 310.820987 L 323.704047 312.035628 L 334.229171 304.208389 L 338.550883 294.898559 L 336.390709 284.370258 L 335.308314 273.841932 L 319.790245 245.092607 L 307.64 228.493843 L 271.203533 203.121563 L 240.159976 192.594089 L 218.700516 188.140327 L 176.050657 187.061898 L 163.904858 190.43589 L 152.835953 190.970859 L 142.848909 192.595215 L 121.930587 199.205597 L 103.032746 210.270738 L 76.5791 228.495693 L 57.278796 254.542284 L 47.293787 284.91129 L 45.671269 312.035522 L 46.212664 329.177466 L 49.995004 351.175859 L 58.901867 370.612289 L 79.282354 395.988104 L 116.933893 416.500279 L 136.776384 423.112369 L 223.555504 433.104266 L 243.533355 442.417125 L 250.687174 449.027714 L 254.062729 462.929267 L 249.605939 476.693907 L 242.45563 485.061519 L 223.555496 493.298592 L 206.417002 494.373763 L 196.562723 496.131892 L 168.355725 493.297648 L 158.910386 488.302923 L 149.598289 482.230922 L 131.243772 462.388349 L 120.173228 457.934227 L 110.322876 459.015085 L 99.792457 457.397216 L 57.281408 459.553332 L 47.290488 464.010517 L 42.839816 475.614838 L 44.458029 486.684421 L 46.754216 497.752468 L 49.990128 507.736037 L 60.519302 528.120376 L 68.214404 535.272926 L 75.503054 543.639772 L 94.799054 555.786997 L 102.494182 564.017326 L 113.022765 569.01273 L 124.087819 572.388369 L 145.685384 580.08214 Z M 168.359315 583.992378 " stroke="#ffffff" stroke-width="20.730862" stroke-opacity="1" stroke-miterlimit="4"/><g fill="#000000" fill-opacity="1"><g transform="translate(705.289024, 696.4131)"><g><path d="M 105.011719 -9.972656 L 135.820312 -13.152344 L 143.492188 -14.929688 L 151.015625 -17.875 L 158.640625 -20.042969 L 166.015625 -24.15625 L 172.910156 -25.835938 L 179.84375 -30.285156 L 204.222656 -49.625 L 213.992188 -62.738281 L 217.179688 -68.683594 L 220.351562 -77.785156 L 221.785156 -85.082031 L 223.265625 -91.992188 L 223.09375 -111.726562 L 220.714844 -124.066406 L 211.976562 -145.859375 L 206.902344 -151.527344 L 195.292969 -161.886719 L 187.496094 -167.203125 L 180.875 -169.511719 L 173.328125 -172.886719 L 141.804688 -178.308594 L 133.882812 -178.472656 L 126.058594 -177.859375 L 117.695312 -178.363281 L 106.421875 -176.910156 L 85.269531 -178.53125 L 69.988281 -183.675781 L 63.453125 -188.367188 L 60.398438 -199.828125 L 60.988281 -210.574219 L 65.003906 -216.226562 L 70.28125 -221.253906 L 76.050781 -225.554688 L 82.847656 -228.007812 L 95.234375 -230 L 107.875 -230.046875 L 115.121094 -229.007812 L 122.71875 -225.242188 L 130.027344 -220.652344 L 136.859375 -213.628906 L 146.0625 -209.679688 L 164.132812 -213.585938 L 174.726562 -214.164062 L 182.5 -215.164062 L 189.597656 -215.289062 L 196.28125 -221.679688 L 198.539062 -228.691406 L 196.03125 -235.875 L 194.304688 -243.160156 L 180.816406 -261.96875 L 170.761719 -272.53125 L 142.804688 -287.105469 L 120.085938 -291.683594 L 104.527344 -292.839844 L 74.496094 -289.761719 L 66.246094 -286.328125 L 58.519531 -284.9375 L 51.675781 -282.871094 L 37.503906 -276.304688 L 25.289062 -266.828125 L 8.285156 -251.59375 L -2.964844 -231.574219 L -7.207031 -209.292969 L -5.921875 -190.097656 L -3.980469 -178.097656 L 0.746094 -162.898438 L 8.71875 -150.097656 L 25.402344 -134.070312 L 53.6875 -123.09375 L 68.28125 -120.230469 L 130.210938 -121.097656 L 145.054688 -116.292969 L 150.707031 -112.277344 L 154.292969 -102.863281 L 152.433594 -92.742188 L 148.132812 -86.261719 L 135.667969 -78.730469 L 123.71875 -76.398438 L 116.871094 -74.332031 L 96.796875 -73.71875 L 89.738281 -76.367188 L 82.582031 -79.792969 L 67.949219 -92.132812 L 59.777344 -94.242188 L 52.878906 -92.5625 L 45.34375 -92.777344 L 15.613281 -87.363281 L 9.019531 -83.355469 L 6.960938 -74.789062 L 9.128906 -67.167969 L 11.683594 -59.59375 L 14.917969 -52.898438 L 24.15625 -39.464844 L 30.25 -35.113281 L 36.054688 -29.933594 L 50.761719 -23.136719 L 56.953125 -18.007812 L 64.789062 -15.460938 L 72.863281 -14.128906 L 88.722656 -10.640625 Z M 105.011719 -9.972656 "/></g></g></g><path fill="#f9f9f9" d="M 120.269531 1034.085938 L 4.210938 1034.085938 L 4.210938 1014.433594 L 107.988281 1014.433594 L 183.558594 859.949219 L 249.695312 894.6875 L 312.640625 783.195312 L 329.738281 792.875 L 257.410156 920.925781 L 192.355469 886.726562 Z M 120.269531 1034.085938 " fill-opacity="1" fill-rule="nonzero"/><path fill="#f9f9f9" d="M 142.972656 373.84375 L 124.742188 368.929688 C 124.742188 335.8125 118.257812 245.644531 87.105469 226.433594 C 79.046875 221.519531 69.414062 222.109375 57.621094 228.203125 L 48.828125 210.710938 C 77.816406 195.625 97.128906 206.632812 108.234375 218.472656 C 123.761719 235.082031 134.617188 265.644531 140.417969 309.277344 C 140.464844 309.964844 147.148438 367.257812 142.972656 373.84375 Z M 142.972656 373.84375 " fill-opacity="1" fill-rule="nonzero"/><path fill="#f9f9f9" d="M 252.496094 399 L 234.265625 394.085938 C 234.265625 359.691406 227.683594 266.332031 195.988281 247.023438 C 188.078125 242.109375 178.695312 242.746094 167.246094 248.691406 L 158.15625 231.25 C 186.800781 216.507812 205.914062 227.269531 217.117188 239.0625 C 232.941406 255.964844 243.945312 287.410156 249.894531 332.421875 C 249.746094 332.960938 256.527344 392.367188 252.496094 399 Z M 252.496094 399 " fill-opacity="1" fill-rule="nonzero"/><path fill="#f9f9f9" d="M 406.589844 643.355469 C 401.503906 643.277344 396.449219 643.648438 391.425781 644.460938 C 386.40625 645.273438 381.492188 646.515625 376.691406 648.191406 C 371.890625 649.867188 367.269531 651.949219 362.832031 654.441406 C 358.398438 656.929688 354.210938 659.785156 350.277344 663.007812 C 348.019531 665.320312 345.660156 667.578125 343.25 669.742188 C 340.046875 673.21875 337.191406 676.960938 334.695312 680.976562 C 332.195312 684.992188 330.09375 689.207031 328.390625 693.617188 C 326.6875 698.027344 325.414062 702.5625 324.566406 707.214844 C 323.71875 711.867188 323.3125 716.554688 323.351562 721.285156 C 323.351562 764.230469 360.695312 799.164062 406.589844 799.164062 C 452.480469 799.164062 489.824219 764.230469 489.824219 721.285156 C 489.824219 678.339844 452.53125 643.355469 406.589844 643.355469 Z M 406.589844 643.355469 " fill-opacity="1" fill-rule="nonzero"/><path fill="#f9f9f9" d="M 338.042969 647.433594 C 343.164062 642.03125 347.816406 636.25 351.996094 630.089844 C 389.046875 575.203125 380.25 504.25 332.34375 471.917969 C 331.808594 471.5625 331.316406 471.152344 330.871094 470.691406 C 322.417969 462.289062 253.234375 426.859375 184.441406 410.84375 C 165.347656 406.164062 145.972656 403.65625 126.316406 403.324219 C 70.347656 403.324219 65.878906 432.804688 64.402344 442.632812 C 51.085938 530.785156 150.144531 628.515625 180.855469 656.375 L 181.496094 657.015625 C 186.421875 662.414062 191.90625 667.164062 197.957031 671.265625 C 201.867188 673.859375 205.949219 676.148438 210.203125 678.132812 C 214.457031 680.117188 218.835938 681.777344 223.335938 683.109375 C 227.835938 684.441406 232.410156 685.429688 237.058594 686.082031 C 241.707031 686.730469 246.378906 687.035156 251.070312 686.988281 C 254.597656 686.917969 258.113281 686.691406 261.617188 686.308594 C 265.125 685.925781 268.605469 685.390625 272.066406 684.699219 C 275.523438 684.007812 278.945312 683.167969 282.328125 682.171875 C 285.710938 681.179688 289.042969 680.039062 292.328125 678.75 C 295.609375 677.460938 298.828125 676.03125 301.984375 674.457031 C 305.140625 672.882812 308.21875 671.171875 311.222656 669.324219 C 314.226562 667.476562 317.144531 665.503906 319.972656 663.398438 C 322.804688 661.292969 325.535156 659.066406 328.167969 656.71875 C 331.253906 653.40625 334.546875 650.3125 338.042969 647.433594 Z M 303.058594 554.566406 C 302.265625 554.761719 301.464844 554.859375 300.648438 554.859375 C 300.109375 554.859375 299.570312 554.816406 299.035156 554.730469 C 298.5 554.640625 297.976562 554.511719 297.464844 554.335938 C 296.953125 554.160156 296.457031 553.945312 295.980469 553.6875 C 295.503906 553.433594 295.050781 553.140625 294.621094 552.808594 C 294.195312 552.476562 293.796875 552.113281 293.425781 551.714844 C 293.058594 551.316406 292.726562 550.894531 292.425781 550.441406 C 292.128906 549.988281 291.871094 549.515625 291.652344 549.019531 C 291.429688 548.523438 291.253906 548.015625 291.117188 547.488281 L 282.914062 515.402344 C 282.75 514.777344 282.648438 514.140625 282.613281 513.496094 C 282.574219 512.847656 282.601562 512.207031 282.691406 511.5625 C 282.78125 510.921875 282.929688 510.296875 283.144531 509.6875 C 283.355469 509.074219 283.628906 508.492188 283.957031 507.933594 C 284.285156 507.375 284.664062 506.855469 285.09375 506.371094 C 285.527344 505.890625 286 505.453125 286.519531 505.0625 C 287.035156 504.675781 287.585938 504.339844 288.167969 504.058594 C 288.75 503.777344 289.355469 503.554688 289.984375 503.394531 C 290.609375 503.234375 291.246094 503.132812 291.890625 503.097656 C 292.539062 503.0625 293.183594 503.089844 293.824219 503.179688 C 294.464844 503.273438 295.089844 503.425781 295.699219 503.640625 C 296.3125 503.851562 296.894531 504.125 297.453125 504.453125 C 298.007812 504.785156 298.527344 505.164062 299.011719 505.597656 C 299.492188 506.027344 299.925781 506.503906 300.316406 507.023438 C 300.703125 507.539062 301.039062 508.089844 301.316406 508.675781 C 301.597656 509.257812 301.816406 509.863281 301.976562 510.492188 L 310.183594 542.625 C 310.339844 543.25 310.4375 543.886719 310.46875 544.53125 C 310.503906 545.175781 310.472656 545.816406 310.378906 546.457031 C 310.285156 547.097656 310.132812 547.71875 309.914062 548.328125 C 309.699219 548.9375 309.425781 549.519531 309.09375 550.070312 C 308.765625 550.625 308.382812 551.144531 307.949219 551.621094 C 307.515625 552.101562 307.042969 552.535156 306.523438 552.917969 C 306.003906 553.304688 305.457031 553.636719 304.871094 553.914062 C 304.289062 554.191406 303.683594 554.40625 303.058594 554.566406 Z M 303.058594 554.566406 " fill-opacity="1" fill-rule="nonzero"/><path fill="#f9f9f9" d="M 650.007812 731.113281 C 546.234375 731.113281 467.960938 771.992188 467.960938 826.238281 C 467.960938 877.785156 551.492188 921.367188 650.007812 921.367188 C 748.527344 921.367188 832.109375 877.785156 832.109375 826.238281 C 832.109375 774.695312 748.722656 731.113281 650.007812 731.113281 Z M 650.007812 731.113281 " fill-opacity="1" fill-rule="nonzero"/><path fill="#f9f9f9" d="M 818.398438 1028.78125 L 718.359375 1028.78125 C 717.398438 1028.78125 716.460938 1028.648438 715.539062 1028.375 C 714.621094 1028.105469 713.757812 1027.707031 712.957031 1027.183594 C 712.152344 1026.660156 711.441406 1026.03125 710.820312 1025.300781 C 710.203125 1024.566406 709.699219 1023.761719 709.316406 1022.882812 L 615.957031 808.796875 L 522.058594 880.484375 L 510.117188 864.859375 L 613.992188 785.554688 C 614.289062 785.328125 614.59375 785.121094 614.914062 784.929688 C 615.230469 784.738281 615.5625 784.566406 615.898438 784.410156 C 616.238281 784.257812 616.582031 784.125 616.9375 784.007812 C 617.292969 783.894531 617.648438 783.800781 618.015625 783.726562 C 618.378906 783.652344 618.746094 783.597656 619.117188 783.566406 C 619.488281 783.535156 619.859375 783.523438 620.230469 783.535156 C 620.601562 783.542969 620.972656 783.574219 621.339844 783.625 C 621.707031 783.679688 622.070312 783.75 622.429688 783.84375 C 622.792969 783.9375 623.144531 784.050781 623.492188 784.183594 C 623.839844 784.316406 624.175781 784.46875 624.507812 784.640625 C 624.835938 784.8125 625.15625 785.003906 625.464844 785.210938 C 625.773438 785.417969 626.066406 785.644531 626.351562 785.886719 C 626.632812 786.125 626.902344 786.382812 627.15625 786.65625 C 627.410156 786.925781 627.644531 787.210938 627.867188 787.511719 C 628.089844 787.808594 628.292969 788.121094 628.476562 788.441406 C 628.664062 788.765625 628.832031 789.097656 628.980469 789.4375 L 724.84375 1009.125 L 818.449219 1009.125 Z M 818.398438 1028.78125 " fill-opacity="1" fill-rule="nonzero"/><g clip-path="url(#4a33dfc3c6)"><path fill="#f9f9f9" d="M 540.976562 1103.566406 L 478.621094 1103.566406 C 478.089844 1103.5625 477.558594 1103.515625 477.035156 1103.429688 C 476.507812 1103.339844 475.996094 1103.210938 475.488281 1103.039062 C 474.984375 1102.867188 474.5 1102.65625 474.027344 1102.402344 C 473.558594 1102.152344 473.113281 1101.863281 472.691406 1101.539062 C 472.265625 1101.214844 471.871094 1100.859375 471.507812 1100.472656 C 471.140625 1100.085938 470.8125 1099.667969 470.511719 1099.226562 C 470.214844 1098.785156 469.957031 1098.324219 469.734375 1097.839844 C 469.511719 1097.355469 469.328125 1096.855469 469.1875 1096.34375 L 397.105469 833.660156 L 416.070312 828.449219 L 486.140625 1083.960938 L 540.976562 1083.960938 Z M 540.976562 1103.566406 " fill-opacity="1" fill-rule="nonzero"/></g><path fill="#f1d903" d="M 112.480469 1033.601562 L 0.667969 1033.601562 L 0.667969 1014.667969 L 100.648438 1014.667969 L 173.453125 865.835938 L 237.171875 899.300781 L 297.8125 791.890625 L 314.289062 801.214844 L 244.605469 924.582031 L 181.929688 891.632812 Z M 112.480469 1033.601562 " fill-opacity="1" fill-rule="nonzero"/><path fill="#f1d903" d="M 134.351562 397.511719 L 116.789062 392.777344 C 116.789062 360.871094 110.539062 274.003906 80.527344 255.492188 C 72.765625 250.757812 63.484375 251.328125 52.125 257.195312 L 43.652344 240.34375 C 71.582031 225.8125 90.183594 236.414062 100.882812 247.824219 C 115.84375 263.824219 126.304688 293.269531 131.890625 335.304688 C 131.9375 335.96875 138.375 391.167969 134.351562 397.511719 Z M 134.351562 397.511719 " fill-opacity="1" fill-rule="nonzero"/><path fill="#f1d903" d="M 239.871094 421.746094 L 222.308594 417.011719 C 222.308594 383.875 215.964844 293.933594 185.429688 275.328125 C 177.808594 270.59375 168.769531 271.210938 157.738281 276.9375 L 148.980469 260.132812 C 176.578125 245.929688 194.992188 256.296875 205.785156 267.660156 C 221.03125 283.945312 231.632812 314.242188 237.363281 357.601562 C 237.21875 358.125 243.753906 415.355469 239.871094 421.746094 Z M 239.871094 421.746094 " fill-opacity="1" fill-rule="nonzero"/><path fill="#f1d903" d="M 388.324219 657.164062 C 383.425781 657.089844 378.558594 657.445312 373.71875 658.226562 C 368.882812 659.011719 364.148438 660.210938 359.523438 661.824219 C 354.894531 663.4375 350.445312 665.445312 346.171875 667.84375 C 341.898438 670.242188 337.867188 672.992188 334.074219 676.097656 C 331.898438 678.324219 329.625 680.503906 327.304688 682.585938 C 324.21875 685.933594 321.46875 689.542969 319.0625 693.410156 C 316.652344 697.277344 314.628906 701.335938 312.988281 705.585938 C 311.347656 709.839844 310.121094 714.203125 309.304688 718.6875 C 308.488281 723.167969 308.097656 727.6875 308.132812 732.242188 C 308.132812 773.617188 344.113281 807.277344 388.324219 807.277344 C 432.539062 807.277344 468.519531 773.617188 468.519531 732.242188 C 468.519531 690.871094 432.585938 657.164062 388.324219 657.164062 Z M 388.324219 657.164062 " fill-opacity="1" fill-rule="nonzero"/><path fill="#f1d903" d="M 322.289062 661.09375 C 327.222656 655.886719 331.703125 650.316406 335.730469 644.382812 C 371.425781 591.503906 362.953125 523.148438 316.796875 492 C 316.28125 491.65625 315.808594 491.261719 315.375 490.816406 C 307.234375 482.71875 240.582031 448.589844 174.304688 433.15625 C 155.910156 428.648438 137.242188 426.234375 118.304688 425.914062 C 64.386719 425.914062 60.078125 454.316406 58.65625 463.785156 C 45.828125 548.710938 141.265625 642.867188 170.851562 669.707031 L 171.464844 670.324219 C 176.210938 675.527344 181.496094 680.101562 187.324219 684.050781 C 191.09375 686.550781 195.027344 688.757812 199.125 690.667969 C 203.222656 692.582031 207.441406 694.179688 211.777344 695.464844 C 216.113281 696.746094 220.519531 697.703125 224.996094 698.328125 C 229.476562 698.953125 233.976562 699.246094 238.5 699.199219 C 245.304688 699.0625 252.046875 698.328125 258.722656 696.996094 C 265.398438 695.664062 271.90625 693.753906 278.242188 691.265625 C 284.582031 688.777344 290.648438 685.75 296.449219 682.183594 C 302.25 678.617188 307.691406 674.570312 312.773438 670.039062 C 315.75 666.847656 318.921875 663.867188 322.289062 661.09375 Z M 288.582031 571.621094 C 287.820312 571.8125 287.046875 571.90625 286.261719 571.90625 C 285.742188 571.90625 285.222656 571.867188 284.707031 571.78125 C 284.191406 571.695312 283.6875 571.570312 283.195312 571.402344 C 282.699219 571.234375 282.222656 571.023438 281.765625 570.777344 C 281.304688 570.53125 280.867188 570.246094 280.457031 569.929688 C 280.042969 569.609375 279.660156 569.257812 279.304688 568.875 C 278.949219 568.492188 278.628906 568.085938 278.339844 567.648438 C 278.054688 567.210938 277.804688 566.757812 277.59375 566.277344 C 277.382812 565.800781 277.210938 565.3125 277.078125 564.804688 L 269.171875 533.894531 C 269.015625 533.289062 268.921875 532.675781 268.882812 532.054688 C 268.847656 531.433594 268.875 530.8125 268.960938 530.195312 C 269.046875 529.578125 269.191406 528.972656 269.398438 528.382812 C 269.601562 527.796875 269.863281 527.234375 270.179688 526.695312 C 270.496094 526.15625 270.863281 525.65625 271.277344 525.191406 C 271.691406 524.726562 272.148438 524.304688 272.648438 523.929688 C 273.144531 523.554688 273.675781 523.234375 274.238281 522.960938 C 274.800781 522.691406 275.382812 522.480469 275.984375 522.324219 C 276.589844 522.167969 277.203125 522.074219 277.824219 522.039062 C 278.449219 522.003906 279.066406 522.03125 279.683594 522.117188 C 280.300781 522.203125 280.90625 522.351562 281.492188 522.558594 C 282.082031 522.765625 282.644531 523.027344 283.179688 523.34375 C 283.71875 523.660156 284.21875 524.027344 284.683594 524.445312 C 285.148438 524.859375 285.566406 525.320312 285.941406 525.816406 C 286.316406 526.316406 286.636719 526.847656 286.90625 527.410156 C 287.175781 527.972656 287.386719 528.554688 287.542969 529.160156 L 295.445312 560.117188 C 295.597656 560.722656 295.691406 561.335938 295.722656 561.957031 C 295.753906 562.578125 295.726562 563.195312 295.636719 563.808594 C 295.546875 564.425781 295.398438 565.027344 295.1875 565.613281 C 294.980469 566.199219 294.71875 566.757812 294.398438 567.292969 C 294.082031 567.828125 293.710938 568.324219 293.296875 568.785156 C 292.878906 569.25 292.421875 569.664062 291.921875 570.035156 C 291.421875 570.40625 290.890625 570.726562 290.332031 570.992188 C 289.769531 571.261719 289.1875 571.46875 288.582031 571.621094 Z M 288.582031 571.621094 " fill-opacity="1" fill-rule="nonzero"/><path fill="#f1d903" d="M 622.84375 741.710938 C 522.863281 741.710938 447.453125 781.097656 447.453125 833.359375 C 447.453125 883.019531 527.929688 925.007812 622.84375 925.007812 C 717.757812 925.007812 798.28125 883.019531 798.28125 833.359375 C 798.28125 783.699219 717.945312 741.710938 622.84375 741.710938 Z M 622.84375 741.710938 " fill-opacity="1" fill-rule="nonzero"/><path fill="#f1d903" d="M 785.074219 1028.492188 L 688.691406 1028.492188 C 687.769531 1028.492188 686.863281 1028.363281 685.976562 1028.101562 C 685.089844 1027.839844 684.261719 1027.457031 683.488281 1026.953125 C 682.710938 1026.449219 682.027344 1025.84375 681.429688 1025.136719 C 680.832031 1024.433594 680.351562 1023.65625 679.980469 1022.808594 L 590.039062 816.554688 L 499.574219 885.621094 L 488.070312 870.566406 L 588.144531 794.164062 C 588.429688 793.945312 588.722656 793.742188 589.03125 793.558594 C 589.339844 793.375 589.65625 793.210938 589.980469 793.0625 C 590.308594 792.914062 590.640625 792.785156 590.980469 792.671875 C 591.320312 792.5625 591.667969 792.472656 592.019531 792.402344 C 592.371094 792.328125 592.722656 792.277344 593.082031 792.246094 C 593.4375 792.214844 593.792969 792.207031 594.152344 792.214844 C 594.511719 792.226562 594.867188 792.253906 595.222656 792.304688 C 595.578125 792.355469 595.925781 792.425781 596.273438 792.515625 C 596.621094 792.605469 596.960938 792.714844 597.296875 792.839844 C 597.628906 792.96875 597.957031 793.117188 598.273438 793.28125 C 598.589844 793.449219 598.898438 793.632812 599.195312 793.832031 C 599.492188 794.03125 599.777344 794.25 600.050781 794.480469 C 600.320312 794.714844 600.582031 794.960938 600.824219 795.222656 C 601.070312 795.484375 601.296875 795.757812 601.511719 796.046875 C 601.722656 796.335938 601.921875 796.632812 602.097656 796.945312 C 602.277344 797.253906 602.4375 797.574219 602.582031 797.902344 L 694.941406 1009.554688 L 785.121094 1009.554688 Z M 785.074219 1028.492188 " fill-opacity="1" fill-rule="nonzero"/><g clip-path="url(#4d5db67106)"><path fill="#f1d903" d="M 517.796875 1100.539062 L 457.726562 1100.539062 C 457.210938 1100.539062 456.703125 1100.496094 456.195312 1100.410156 C 455.6875 1100.324219 455.191406 1100.199219 454.707031 1100.035156 C 454.222656 1099.867188 453.753906 1099.664062 453.300781 1099.421875 C 452.847656 1099.179688 452.417969 1098.902344 452.007812 1098.589844 C 451.601562 1098.277344 451.222656 1097.933594 450.871094 1097.5625 C 450.519531 1097.1875 450.199219 1096.789062 449.914062 1096.363281 C 449.625 1095.9375 449.375 1095.492188 449.160156 1095.023438 C 448.945312 1094.558594 448.773438 1094.078125 448.636719 1093.582031 L 379.191406 840.507812 L 397.460938 835.488281 L 464.96875 1081.652344 L 517.796875 1081.652344 Z M 517.796875 1100.539062 " fill-opacity="1" fill-rule="nonzero"/></g><path fill="#f9f9f9" d="M 1592.589844 121.078125 L 1289.742188 272.5 L 1592.589844 423.921875 L 1895.433594 272.5 Z M 1592.589844 121.078125 " fill-opacity="1" fill-rule="nonzero"/><path fill="#f1d903" d="M 1592.589844 423.917969 L 1592.589844 802.476562 L 1895.433594 651.054688 L 1895.433594 272.496094 Z M 1592.589844 423.917969 " fill-opacity="1" fill-rule="nonzero"/><path fill="#cccccc" d="M 1592.589844 423.917969 L 1592.589844 802.476562 L 1289.742188 651.054688 L 1289.742188 272.496094 Z M 1592.589844 423.917969 " fill-opacity="1" fill-rule="nonzero"/><g clip-path="url(#5a268d5c5b)"><path stroke-linecap="butt" transform="matrix(15.142238, 0, 0, 15.142238, 1138.3215, 85.308569)" fill="none" stroke-linejoin="miter" d="M 30.000079 2.374878 L 9.999888 12.375102 L 9.999888 37.375019 L 30.000079 47.374985 L 50.000012 37.375019 L 50.000012 12.375102 Z M 30.000079 2.374878 " stroke="#4d4d4d" stroke-width="1" stroke-opacity="1" stroke-miterlimit="4"/></g><path stroke-linecap="butt" transform="matrix(0.703126, -0.0905921, 0.0905921, 0.703126, 1559.400661, 297.102119)" fill="none" stroke-linejoin="miter" d="M 85.680538 563.47626 L 91.218246 574.006396 L 108.357727 580.081338 L 169.227282 579.540567 L 180.157223 574.00437 L 187.448677 556.866072 L 186.907282 539.724129 L 187.985884 528.118676 L 186.229736 504.364679 L 186.908559 493.835494 L 186.231433 483.309383 L 187.448768 471.705138 L 192.439386 460.092607 L 208.907884 454.558898 L 295.149316 454.020427 L 305.676029 449.02672 L 311.750723 438.098307 L 311.211472 425.812186 L 312.288522 392.745464 L 310.67235 382.220587 L 305.134616 370.612672 L 288.536418 365.079691 L 204.586532 365.080078 L 191.766403 360.622759 L 185.691493 350.640074 L 185.69351 318.11262 L 187.444622 306.504926 L 186.906255 297.057802 L 192.44362 285.987936 L 208.367412 280.456268 L 224.425433 280.997439 L 240.486852 279.916828 L 267.617253 281.534585 L 278.684117 280.454909 L 301.222486 281.536576 L 312.29207 279.918363 L 322.818782 274.924657 L 326.733662 263.856857 L 326.729046 253.328505 L 327.809889 242.395562 L 326.732959 231.86794 L 327.811561 220.262488 L 326.729845 208.650917 L 321.196897 198.12695 L 311.212316 193.13497 L 297.982337 191.513728 L 278.006887 193.13449 L 266.404179 192.59513 L 254.796033 193.132844 L 244.401627 192.05472 L 233.874005 193.13165 L 101.746658 193.130307 L 91.216521 198.668016 L 85.144043 209.19116 L 87.299849 275.463234 L 86.221222 285.990908 L 85.684351 364.53825 L 87.303747 374.391322 L 86.225119 384.918995 L 86.221551 395.98518 L 85.14499 408.135339 L 87.303405 425.274512 L 85.684904 539.726869 L 86.761885 552.410049 Z M 85.680538 563.47626 " stroke="#ffffff" stroke-width="20.730862" stroke-opacity="1" stroke-miterlimit="4"/><g fill="#000000" fill-opacity="1"><g transform="translate(1643.724889, 700.105917)"><g><path d="M 26.972656 -14.539062 L 31.8125 -7.65625 L 44.414062 -4.933594 L 87.121094 -10.828125 L 94.394531 -15.71875 L 97.894531 -28.417969 L 95.953125 -40.417969 L 95.679688 -48.679688 L 92.359375 -65.246094 L 91.796875 -72.679688 L 90.453125 -80.015625 L 90.179688 -88.277344 L 92.628906 -96.894531 L 103.789062 -102.28125 L 164.375 -110.484375 L 171.308594 -114.933594 L 174.582031 -123.257812 L 173.09375 -131.757812 L 170.867188 -155.183594 L 168.75 -162.417969 L 163.808594 -170.078125 L 151.648438 -172.464844 L 92.566406 -164.851562 L 83.222656 -166.808594 L 78.046875 -173.253906 L 75.09375 -196.1875 L 75.207031 -204.5 L 73.964844 -211.058594 L 76.851562 -219.332031 L 87.625 -224.671875 L 98.945312 -225.738281 L 110.117188 -227.964844 L 129.316406 -229.253906 L 136.988281 -231.035156 L 153.027344 -232.308594 L 160.648438 -234.476562 L 167.582031 -238.925781 L 169.304688 -247.050781 L 168.351562 -254.4375 L 168.128906 -262.3125 L 166.398438 -269.597656 L 166.125 -277.859375 L 164.296875 -285.921875 L 159.457031 -292.804688 L 152.007812 -295.402344 L 142.53125 -295.367188 L 128.6875 -292.398438 L 120.472656 -291.734375 L 112.363281 -290.296875 L 104.875 -290.121094 L 97.589844 -288.390625 L 4.691406 -276.421875 L -2.195312 -271.582031 L -5.519531 -263.648438 L 2.046875 -217.203125 L 2.222656 -209.71875 L 8.945312 -154.472656 L 11.011719 -147.625 L 11.183594 -140.140625 L 12.1875 -132.367188 L 12.511719 -123.714844 L 15.617188 -111.867188 L 24.820312 -31.253906 L 26.75 -22.414062 Z M 26.972656 -14.539062 "/></g></g></g><path fill="#ffffff" d="M 1061.292969 1023.53125 L 945.234375 1023.53125 L 945.234375 1003.875 L 1049.007812 1003.875 L 1124.582031 849.390625 L 1190.71875 884.132812 L 1253.660156 772.640625 L 1270.761719 782.320312 L 1198.433594 910.371094 L 1133.375 876.171875 Z M 1061.292969 1023.53125 " fill-opacity="1" fill-rule="nonzero"/><path fill="#ffffff" d="M 1083.996094 363.285156 L 1065.765625 358.375 C 1065.765625 325.253906 1059.277344 235.089844 1028.125 215.878906 C 1020.066406 210.964844 1010.4375 211.554688 998.644531 217.648438 L 989.847656 200.15625 C 1018.839844 185.070312 1038.148438 196.078125 1049.253906 207.917969 C 1064.78125 224.527344 1075.640625 255.089844 1081.4375 298.722656 C 1081.488281 299.410156 1088.171875 356.703125 1083.996094 363.285156 Z M 1083.996094 363.285156 " fill-opacity="1" fill-rule="nonzero"/><path fill="#ffffff" d="M 1193.519531 388.445312 L 1175.289062 383.53125 C 1175.289062 349.136719 1168.707031 255.777344 1137.011719 236.464844 C 1129.101562 231.550781 1119.714844 232.191406 1108.269531 238.136719 L 1099.175781 220.695312 C 1127.824219 205.953125 1146.9375 216.714844 1158.140625 228.507812 C 1173.964844 245.410156 1184.96875 276.855469 1190.914062 321.863281 C 1190.765625 322.40625 1197.546875 381.8125 1193.519531 388.445312 Z M 1193.519531 388.445312 " fill-opacity="1" fill-rule="nonzero"/><path fill="#ffffff" d="M 1347.609375 632.800781 C 1342.523438 632.722656 1337.472656 633.089844 1332.449219 633.902344 C 1327.429688 634.714844 1322.515625 635.960938 1317.714844 637.636719 C 1312.910156 639.3125 1308.292969 641.394531 1303.855469 643.882812 C 1299.417969 646.371094 1295.234375 649.230469 1291.300781 652.453125 C 1289.039062 654.761719 1286.679688 657.023438 1284.273438 659.183594 C 1281.066406 662.660156 1278.214844 666.40625 1275.714844 670.421875 C 1273.21875 674.4375 1271.117188 678.648438 1269.414062 683.0625 C 1267.710938 687.472656 1266.433594 692.003906 1265.585938 696.65625 C 1264.738281 701.308594 1264.335938 706 1264.375 710.730469 C 1264.375 753.675781 1301.71875 788.609375 1347.609375 788.609375 C 1393.503906 788.609375 1430.847656 753.675781 1430.847656 710.730469 C 1430.847656 667.785156 1393.554688 632.800781 1347.609375 632.800781 Z M 1347.609375 632.800781 " fill-opacity="1" fill-rule="nonzero"/><path fill="#ffffff" d="M 1279.066406 636.878906 C 1284.1875 631.472656 1288.839844 625.691406 1293.019531 619.53125 C 1330.070312 564.648438 1321.273438 493.695312 1273.367188 461.363281 C 1272.828125 461.007812 1272.339844 460.597656 1271.890625 460.132812 C 1263.441406 451.730469 1194.257812 416.304688 1125.464844 400.285156 C 1106.371094 395.605469 1086.996094 393.101562 1067.335938 392.769531 C 1011.371094 392.769531 1006.898438 422.25 1005.425781 432.078125 C 992.109375 520.226562 1091.167969 617.960938 1121.878906 645.820312 L 1122.515625 646.460938 C 1127.441406 651.859375 1132.929688 656.609375 1138.976562 660.707031 C 1142.890625 663.300781 1146.972656 665.589844 1151.226562 667.578125 C 1155.480469 669.5625 1159.855469 671.21875 1164.355469 672.550781 C 1168.859375 673.882812 1173.433594 674.875 1178.082031 675.527344 C 1182.730469 676.175781 1187.402344 676.476562 1192.09375 676.433594 C 1195.621094 676.363281 1199.136719 676.136719 1202.640625 675.753906 C 1206.148438 675.371094 1209.628906 674.835938 1213.085938 674.144531 C 1216.546875 673.453125 1219.964844 672.609375 1223.351562 671.617188 C 1226.734375 670.625 1230.066406 669.484375 1233.347656 668.195312 C 1236.632812 666.90625 1239.851562 665.472656 1243.007812 663.898438 C 1246.164062 662.328125 1249.242188 660.617188 1252.246094 658.769531 C 1255.25 656.921875 1258.167969 654.945312 1260.996094 652.84375 C 1263.824219 650.738281 1266.558594 648.511719 1269.1875 646.164062 C 1272.277344 642.851562 1275.570312 639.757812 1279.066406 636.878906 Z M 1244.082031 544.011719 C 1243.289062 544.207031 1242.488281 544.304688 1241.671875 544.304688 C 1241.132812 544.304688 1240.59375 544.261719 1240.058594 544.175781 C 1239.523438 544.085938 1239 543.953125 1238.488281 543.78125 C 1237.976562 543.605469 1237.480469 543.390625 1237.003906 543.132812 C 1236.527344 542.878906 1236.074219 542.582031 1235.644531 542.253906 C 1235.214844 541.921875 1234.816406 541.554688 1234.449219 541.160156 C 1234.082031 540.761719 1233.746094 540.335938 1233.449219 539.886719 C 1233.152344 539.433594 1232.894531 538.957031 1232.671875 538.464844 C 1232.453125 537.96875 1232.277344 537.457031 1232.140625 536.933594 L 1223.933594 504.847656 C 1223.773438 504.222656 1223.671875 503.585938 1223.632812 502.941406 C 1223.597656 502.292969 1223.621094 501.648438 1223.710938 501.007812 C 1223.800781 500.367188 1223.953125 499.742188 1224.167969 499.128906 C 1224.378906 498.519531 1224.652344 497.933594 1224.980469 497.378906 C 1225.308594 496.820312 1225.6875 496.300781 1226.117188 495.816406 C 1226.550781 495.332031 1227.023438 494.898438 1227.539062 494.507812 C 1228.058594 494.117188 1228.605469 493.785156 1229.191406 493.503906 C 1229.773438 493.222656 1230.378906 493 1231.003906 492.839844 C 1231.632812 492.675781 1232.269531 492.578125 1232.914062 492.542969 C 1233.5625 492.507812 1234.203125 492.535156 1234.84375 492.625 C 1235.484375 492.714844 1236.113281 492.867188 1236.722656 493.082031 C 1237.332031 493.296875 1237.917969 493.570312 1238.472656 493.898438 C 1239.03125 494.230469 1239.550781 494.609375 1240.03125 495.042969 C 1240.515625 495.472656 1240.949219 495.949219 1241.335938 496.464844 C 1241.726562 496.984375 1242.058594 497.535156 1242.339844 498.117188 C 1242.621094 498.703125 1242.839844 499.308594 1243 499.933594 L 1251.207031 532.070312 C 1251.363281 532.695312 1251.460938 533.332031 1251.492188 533.976562 C 1251.527344 534.621094 1251.496094 535.261719 1251.402344 535.902344 C 1251.308594 536.539062 1251.152344 537.164062 1250.9375 537.773438 C 1250.722656 538.378906 1250.449219 538.960938 1250.117188 539.515625 C 1249.785156 540.070312 1249.40625 540.585938 1248.972656 541.066406 C 1248.539062 541.546875 1248.0625 541.980469 1247.546875 542.363281 C 1247.027344 542.75 1246.476562 543.082031 1245.894531 543.359375 C 1245.3125 543.636719 1244.707031 543.851562 1244.082031 544.011719 Z M 1244.082031 544.011719 " fill-opacity="1" fill-rule="nonzero"/><path fill="#ffffff" d="M 1591.03125 720.558594 C 1487.253906 720.558594 1408.980469 761.4375 1408.980469 815.683594 C 1408.980469 867.226562 1492.511719 910.8125 1591.03125 910.8125 C 1689.550781 910.8125 1773.128906 867.226562 1773.128906 815.683594 C 1773.128906 764.140625 1689.746094 720.558594 1591.03125 720.558594 Z M 1591.03125 720.558594 " fill-opacity="1" fill-rule="nonzero"/><path fill="#ffffff" d="M 1759.421875 1018.222656 L 1659.378906 1018.222656 C 1658.421875 1018.226562 1657.480469 1018.09375 1656.5625 1017.820312 C 1655.640625 1017.550781 1654.78125 1017.152344 1653.976562 1016.628906 C 1653.175781 1016.105469 1652.460938 1015.476562 1651.84375 1014.742188 C 1651.222656 1014.011719 1650.722656 1013.207031 1650.339844 1012.328125 L 1556.980469 798.242188 L 1463.082031 869.929688 L 1451.140625 854.304688 L 1555.015625 775 C 1555.308594 774.773438 1555.617188 774.566406 1555.9375 774.375 C 1556.253906 774.183594 1556.582031 774.011719 1556.921875 773.855469 C 1557.261719 773.703125 1557.605469 773.566406 1557.960938 773.453125 C 1558.3125 773.339844 1558.671875 773.246094 1559.035156 773.171875 C 1559.402344 773.097656 1559.769531 773.042969 1560.140625 773.011719 C 1560.507812 772.980469 1560.878906 772.96875 1561.253906 772.976562 C 1561.625 772.988281 1561.992188 773.019531 1562.363281 773.070312 C 1562.730469 773.121094 1563.09375 773.195312 1563.453125 773.289062 C 1563.8125 773.382812 1564.167969 773.496094 1564.515625 773.628906 C 1564.863281 773.761719 1565.199219 773.914062 1565.53125 774.085938 C 1565.859375 774.257812 1566.179688 774.449219 1566.488281 774.65625 C 1566.792969 774.863281 1567.089844 775.089844 1567.371094 775.328125 C 1567.65625 775.570312 1567.921875 775.828125 1568.175781 776.101562 C 1568.429688 776.371094 1568.667969 776.65625 1568.890625 776.957031 C 1569.109375 777.253906 1569.3125 777.566406 1569.5 777.886719 C 1569.6875 778.207031 1569.851562 778.539062 1570 778.882812 L 1665.867188 998.570312 L 1759.46875 998.570312 Z M 1759.421875 1018.222656 " fill-opacity="1" fill-rule="nonzero"/><g clip-path="url(#c0d741017f)"><path fill="#ffffff" d="M 1482 1093.007812 L 1419.644531 1093.007812 C 1419.113281 1093.007812 1418.582031 1092.960938 1418.058594 1092.875 C 1417.53125 1092.785156 1417.015625 1092.65625 1416.511719 1092.484375 C 1416.007812 1092.3125 1415.519531 1092.097656 1415.050781 1091.847656 C 1414.582031 1091.597656 1414.136719 1091.308594 1413.710938 1090.984375 C 1413.289062 1090.660156 1412.894531 1090.304688 1412.53125 1089.917969 C 1412.164062 1089.527344 1411.832031 1089.113281 1411.535156 1088.671875 C 1411.238281 1088.230469 1410.976562 1087.765625 1410.753906 1087.285156 C 1410.53125 1086.800781 1410.351562 1086.300781 1410.210938 1085.785156 L 1338.128906 823.105469 L 1357.09375 817.894531 L 1427.160156 1073.402344 L 1482 1073.402344 Z M 1482 1093.007812 " fill-opacity="1" fill-rule="nonzero"/></g><g clip-path="url(#99259f56a3)"><path fill="#1eab01" d="M 1053.503906 1023.046875 L 941.691406 1023.046875 L 941.691406 1004.113281 L 1041.667969 1004.113281 L 1114.476562 855.277344 L 1178.195312 888.746094 L 1238.835938 781.335938 L 1255.308594 790.660156 L 1185.628906 914.027344 L 1122.949219 881.078125 Z M 1053.503906 1023.046875 " fill-opacity="1" fill-rule="nonzero"/></g><path fill="#1eab01" d="M 1075.375 386.953125 L 1057.8125 382.21875 C 1057.8125 350.3125 1051.5625 263.445312 1021.550781 244.9375 C 1013.785156 240.203125 1004.507812 240.773438 993.148438 246.640625 L 984.671875 229.789062 C 1012.601562 215.257812 1031.207031 225.859375 1041.90625 237.269531 C 1056.867188 253.269531 1067.328125 282.714844 1072.914062 324.75 C 1072.960938 325.414062 1079.398438 380.609375 1075.375 386.953125 Z M 1075.375 386.953125 " fill-opacity="1" fill-rule="nonzero"/><path fill="#1eab01" d="M 1180.894531 411.191406 L 1163.332031 406.457031 C 1163.332031 373.320312 1156.988281 283.375 1126.453125 264.773438 C 1118.832031 260.039062 1109.789062 260.652344 1098.761719 266.382812 L 1090.003906 249.578125 C 1117.601562 235.375 1136.015625 245.742188 1146.808594 257.105469 C 1162.050781 273.386719 1172.65625 303.683594 1178.382812 347.046875 C 1178.242188 347.566406 1184.773438 404.800781 1180.894531 411.191406 Z M 1180.894531 411.191406 " fill-opacity="1" fill-rule="nonzero"/><path fill="#1eab01" d="M 1329.347656 646.609375 C 1324.449219 646.535156 1319.578125 646.890625 1314.742188 647.671875 C 1309.902344 648.457031 1305.171875 649.652344 1300.546875 651.269531 C 1295.917969 652.882812 1291.46875 654.890625 1287.195312 657.289062 C 1282.921875 659.683594 1278.886719 662.4375 1275.097656 665.542969 C 1272.921875 667.769531 1270.648438 669.945312 1268.328125 672.03125 C 1265.238281 675.378906 1262.492188 678.988281 1260.085938 682.855469 C 1257.675781 686.722656 1255.652344 690.78125 1254.011719 695.03125 C 1252.371094 699.28125 1251.140625 703.648438 1250.324219 708.132812 C 1249.507812 712.613281 1249.121094 717.132812 1249.15625 721.6875 C 1249.15625 763.0625 1285.132812 796.71875 1329.347656 796.71875 C 1373.5625 796.71875 1409.539062 763.0625 1409.539062 721.6875 C 1409.539062 680.3125 1373.609375 646.609375 1329.347656 646.609375 Z M 1329.347656 646.609375 " fill-opacity="1" fill-rule="nonzero"/><path fill="#1eab01" d="M 1263.308594 650.539062 C 1268.246094 645.332031 1272.726562 639.761719 1276.753906 633.828125 C 1312.449219 580.949219 1303.972656 512.59375 1257.820312 481.441406 C 1257.304688 481.101562 1256.828125 480.707031 1256.398438 480.257812 C 1248.257812 472.164062 1181.601562 438.03125 1115.328125 422.601562 C 1096.933594 418.089844 1078.265625 415.675781 1059.328125 415.359375 C 1005.40625 415.359375 1001.101562 443.761719 999.679688 453.230469 C 986.851562 538.15625 1082.285156 632.3125 1111.875 659.152344 L 1112.488281 659.769531 C 1117.234375 664.96875 1122.519531 669.546875 1128.347656 673.496094 C 1132.117188 675.996094 1136.050781 678.203125 1140.148438 680.113281 C 1144.246094 682.027344 1148.460938 683.625 1152.796875 684.90625 C 1157.132812 686.191406 1161.542969 687.144531 1166.019531 687.773438 C 1170.5 688.398438 1175 688.691406 1179.519531 688.644531 C 1186.328125 688.507812 1193.070312 687.773438 1199.746094 686.441406 C 1206.421875 685.105469 1212.929688 683.195312 1219.265625 680.707031 C 1225.605469 678.21875 1231.671875 675.195312 1237.472656 671.628906 C 1243.273438 668.0625 1248.714844 664.015625 1253.796875 659.484375 C 1256.769531 656.292969 1259.941406 653.3125 1263.308594 650.539062 Z M 1229.605469 561.066406 C 1228.84375 561.253906 1228.070312 561.351562 1227.285156 561.351562 C 1226.761719 561.351562 1226.246094 561.308594 1225.730469 561.226562 C 1225.214844 561.140625 1224.710938 561.015625 1224.21875 560.84375 C 1223.722656 560.675781 1223.246094 560.46875 1222.785156 560.222656 C 1222.328125 559.976562 1221.890625 559.691406 1221.476562 559.375 C 1221.066406 559.054688 1220.679688 558.703125 1220.328125 558.320312 C 1219.972656 557.9375 1219.652344 557.527344 1219.363281 557.09375 C 1219.074219 556.65625 1218.828125 556.199219 1218.613281 555.722656 C 1218.402344 555.246094 1218.230469 554.753906 1218.101562 554.25 L 1210.195312 523.335938 C 1210.039062 522.734375 1209.941406 522.121094 1209.90625 521.5 C 1209.871094 520.875 1209.894531 520.257812 1209.980469 519.636719 C 1210.070312 519.019531 1210.214844 518.417969 1210.417969 517.828125 C 1210.625 517.242188 1210.886719 516.675781 1211.203125 516.140625 C 1211.519531 515.601562 1211.882812 515.101562 1212.300781 514.636719 C 1212.714844 514.171875 1213.171875 513.75 1213.667969 513.375 C 1214.167969 513 1214.699219 512.675781 1215.257812 512.40625 C 1215.820312 512.136719 1216.402344 511.921875 1217.007812 511.769531 C 1217.613281 511.613281 1218.226562 511.515625 1218.847656 511.480469 C 1219.46875 511.449219 1220.089844 511.472656 1220.707031 511.5625 C 1221.324219 511.648438 1221.929688 511.796875 1222.515625 512.003906 C 1223.105469 512.210938 1223.667969 512.472656 1224.203125 512.789062 C 1224.742188 513.105469 1225.242188 513.472656 1225.707031 513.890625 C 1226.167969 514.304688 1226.589844 514.761719 1226.960938 515.261719 C 1227.335938 515.761719 1227.660156 516.292969 1227.929688 516.855469 C 1228.199219 517.417969 1228.410156 518 1228.5625 518.605469 L 1236.46875 549.5625 C 1236.621094 550.167969 1236.714844 550.777344 1236.746094 551.398438 C 1236.777344 552.019531 1236.75 552.640625 1236.660156 553.253906 C 1236.570312 553.871094 1236.421875 554.472656 1236.210938 555.058594 C 1236.003906 555.644531 1235.738281 556.203125 1235.421875 556.738281 C 1235.101562 557.273438 1234.734375 557.769531 1234.316406 558.230469 C 1233.902344 558.691406 1233.441406 559.109375 1232.945312 559.480469 C 1232.445312 559.851562 1231.914062 560.171875 1231.351562 560.4375 C 1230.789062 560.707031 1230.207031 560.914062 1229.605469 561.066406 Z M 1229.605469 561.066406 " fill-opacity="1" fill-rule="nonzero"/><path fill="#1eab01" d="M 1563.867188 731.15625 C 1463.886719 731.15625 1388.476562 770.542969 1388.476562 822.804688 C 1388.476562 872.460938 1468.949219 914.453125 1563.867188 914.453125 C 1658.78125 914.453125 1739.304688 872.460938 1739.304688 822.804688 C 1739.304688 773.144531 1658.96875 731.15625 1563.867188 731.15625 Z M 1563.867188 731.15625 " fill-opacity="1" fill-rule="nonzero"/><path fill="#1eab01" d="M 1726.097656 1017.933594 L 1629.714844 1017.933594 C 1628.789062 1017.9375 1627.886719 1017.808594 1627 1017.546875 C 1626.113281 1017.285156 1625.28125 1016.902344 1624.507812 1016.398438 C 1623.734375 1015.894531 1623.050781 1015.289062 1622.453125 1014.582031 C 1621.855469 1013.878906 1621.375 1013.101562 1621.003906 1012.253906 L 1531.058594 806 L 1440.59375 875.066406 L 1429.089844 860.011719 L 1529.167969 783.605469 C 1529.449219 783.390625 1529.746094 783.1875 1530.054688 783.003906 C 1530.359375 782.820312 1530.675781 782.652344 1531.003906 782.503906 C 1531.328125 782.355469 1531.664062 782.226562 1532.003906 782.117188 C 1532.34375 782.007812 1532.691406 781.917969 1533.042969 781.84375 C 1533.390625 781.773438 1533.746094 781.722656 1534.101562 781.691406 C 1534.460938 781.660156 1534.816406 781.648438 1535.175781 781.660156 C 1535.535156 781.667969 1535.890625 781.699219 1536.246094 781.75 C 1536.597656 781.800781 1536.949219 781.867188 1537.296875 781.957031 C 1537.644531 782.046875 1537.984375 782.15625 1538.316406 782.285156 C 1538.652344 782.414062 1538.980469 782.5625 1539.296875 782.726562 C 1539.613281 782.890625 1539.921875 783.074219 1540.21875 783.277344 C 1540.515625 783.476562 1540.800781 783.691406 1541.070312 783.925781 C 1541.34375 784.15625 1541.601562 784.40625 1541.847656 784.667969 C 1542.089844 784.929688 1542.320312 785.203125 1542.53125 785.492188 C 1542.746094 785.78125 1542.941406 786.078125 1543.121094 786.390625 C 1543.300781 786.699219 1543.460938 787.019531 1543.605469 787.347656 L 1635.960938 999 L 1726.144531 999 Z M 1726.097656 1017.933594 " fill-opacity="1" fill-rule="nonzero"/><path fill="#1eab01" d="M 1458.820312 1089.984375 L 1398.746094 1089.984375 C 1398.234375 1089.984375 1397.722656 1089.9375 1397.21875 1089.855469 C 1396.710938 1089.769531 1396.214844 1089.644531 1395.730469 1089.476562 C 1395.242188 1089.3125 1394.773438 1089.109375 1394.320312 1088.867188 C 1393.871094 1088.625 1393.441406 1088.347656 1393.03125 1088.035156 C 1392.625 1087.722656 1392.246094 1087.378906 1391.894531 1087.007812 C 1391.542969 1086.632812 1391.222656 1086.230469 1390.933594 1085.804688 C 1390.648438 1085.382812 1390.398438 1084.933594 1390.183594 1084.46875 C 1389.96875 1084 1389.792969 1083.519531 1389.65625 1083.027344 L 1320.210938 829.953125 L 1338.484375 824.933594 L 1405.988281 1071.097656 L 1458.820312 1071.097656 Z M 1458.820312 1089.984375 " fill-opacity="1" fill-rule="nonzero"/><path fill="#f9f9f9" d="M 2551.585938 131.988281 L 2248.742188 283.410156 L 2551.585938 434.832031 L 2854.433594 283.410156 Z M 2551.585938 131.988281 " fill-opacity="1" fill-rule="nonzero"/><path fill="#1eab01" d="M 2551.585938 434.828125 L 2551.585938 813.382812 L 2854.433594 661.960938 L 2854.433594 283.40625 Z M 2551.585938 434.828125 " fill-opacity="1" fill-rule="nonzero"/><path fill="#cccccc" d="M 2551.585938 434.828125 L 2551.585938 813.382812 L 2248.742188 661.960938 L 2248.742188 283.40625 Z M 2551.585938 434.828125 " fill-opacity="1" fill-rule="nonzero"/><g clip-path="url(#a3806da2e5)"><path stroke-linecap="butt" transform="matrix(15.142238, 0, 0, 15.142238, 2097.320701, 96.217586)" fill="none" stroke-linejoin="miter" d="M 29.999874 2.374953 L 9.999941 12.374919 L 9.999941 37.375094 L 29.999874 47.37506 L 50.000065 37.375094 L 50.000065 12.374919 Z M 29.999874 2.374953 " stroke="#4d4d4d" stroke-width="1" stroke-opacity="1" stroke-miterlimit="4"/></g><path stroke-linecap="butt" transform="matrix(0.703126, -0.0905921, 0.0905921, 0.703126, 2542.075791, 297.102119)" fill="none" stroke-linejoin="miter" d="M 147.534448 561.856762 L 151.988938 573.463999 L 163.598046 578.998619 L 174.125668 577.921689 L 185.192583 578.997571 L 195.720205 577.920641 L 229.997949 577.920391 L 241.065944 573.468645 L 245.386797 562.397597 L 244.848404 551.872694 L 246.060953 539.184502 L 245.38465 517.052964 L 243.768 507.739134 L 245.385844 496.130937 L 246.60009 462.387448 L 245.386468 452.403324 L 247.138403 429.190204 L 244.844487 319.189309 L 246.603809 308.121561 L 245.385375 295.97571 L 249.838818 285.98841 L 261.987312 280.998101 L 271.43514 280.454269 L 282.50407 280.997079 L 292.48769 279.916725 L 322.856867 280.457331 L 335.544603 275.464277 L 341.076503 264.393707 L 339.999547 252.788306 L 341.075884 207.438182 L 335.545151 196.508946 L 324.475285 190.971581 L 311.247399 192.050603 L 302.341506 190.975374 L 291.813858 190.974525 L 279.666496 192.592763 L 268.599606 192.59466 L 257.666664 191.513816 L 246.599774 191.515713 L 233.780606 193.130728 L 69.11961 192.05435 L 56.973861 197.5839 L 51.441961 208.65447 L 50.901776 263.856986 L 56.976032 276.000693 L 68.040433 281.537354 L 82.349523 279.914304 L 131.612973 280.455954 L 141.463607 286.530674 L 146.996555 297.054641 L 148.748373 357.924675 L 146.995477 375.065462 L 148.211644 385.461024 L 146.997029 396.526731 L 146.995357 418.659806 L 148.753942 434.719688 L 146.459059 451.323978 L 146.994733 462.387418 L 146.454668 473.99559 L 148.212687 507.738698 L 146.998072 518.804405 Z M 147.534448 561.856762 " stroke="#ffffff" stroke-width="20.730862" stroke-opacity="1" stroke-miterlimit="4"/><g fill="#000000" fill-opacity="1"><g transform="translate(2623.675404, 700.456961)"><g><path d="M 73.078125 -21.664062 L 77.238281 -13.902344 L 85.902344 -11.066406 L 93.1875 -12.796875 L 101.0625 -13.019531 L 108.347656 -14.75 L 132.449219 -17.855469 L 139.820312 -21.964844 L 141.929688 -30.140625 L 140.589844 -37.476562 L 140.214844 -46.515625 L 137.820312 -62.015625 L 135.804688 -68.472656 L 135.917969 -76.785156 L 133.640625 -100.597656 L 131.960938 -107.492188 L 131.023438 -123.96875 L 119.503906 -201.121094 L 119.667969 -209.042969 L 117.789062 -217.496094 L 119.996094 -224.894531 L 128.097656 -229.492188 L 134.65625 -230.734375 L 142.480469 -231.347656 L 149.378906 -233.023438 L 170.804688 -235.390625 L 179.296875 -240.039062 L 182.179688 -248.316406 L 180.351562 -256.378906 L 177.023438 -288.351562 L 172.132812 -295.625 L 163.859375 -298.511719 L 154.628906 -296.53125 L 148.3125 -296.507812 L 140.925781 -295.554688 L 132.523438 -293.289062 L 124.75 -292.285156 L 116.875 -292.0625 L 109.101562 -291.058594 L 100.3125 -288.742188 L -15.621094 -274.59375 L -23.671875 -269.605469 L -26.558594 -261.332031 L -21.9375 -222.410156 L -16.5625 -214.410156 L -8.285156 -211.527344 L 1.671875 -213.992188 L 36.316406 -218.0625 L 43.863281 -214.6875 L 48.699219 -207.804688 L 55.375 -165.195312 L 55.761719 -152.996094 L 57.492188 -145.710938 L 57.714844 -137.835938 L 59.71875 -122.289062 L 62.335938 -111.167969 L 62.285156 -99.304688 L 63.675781 -91.582031 L 64.339844 -83.367188 L 68.558594 -59.808594 L 68.785156 -51.933594 Z M 73.078125 -21.664062 "/></g></g></g><path fill="#ffffff" d="M 2020.292969 1053.722656 L 1904.234375 1053.722656 L 1904.234375 1034.066406 L 2008.007812 1034.066406 L 2083.578125 879.582031 L 2149.71875 914.324219 L 2212.660156 802.832031 L 2229.761719 812.511719 L 2157.433594 940.5625 L 2092.375 906.363281 Z M 2020.292969 1053.722656 " fill-opacity="1" fill-rule="nonzero"/><path fill="#ffffff" d="M 2042.992188 393.480469 L 2024.765625 388.566406 C 2024.765625 355.445312 2018.277344 265.28125 1987.125 246.070312 C 1979.066406 241.15625 1969.4375 241.746094 1957.644531 247.839844 L 1948.847656 230.347656 C 1977.839844 215.261719 1997.148438 226.269531 2008.253906 238.109375 C 2023.78125 254.71875 2034.640625 285.28125 2040.4375 328.914062 C 2040.488281 329.601562 2047.171875 386.894531 2042.992188 393.480469 Z M 2042.992188 393.480469 " fill-opacity="1" fill-rule="nonzero"/><path fill="#ffffff" d="M 2152.519531 418.636719 L 2134.289062 413.722656 C 2134.289062 379.328125 2127.703125 285.96875 2096.011719 266.65625 C 2088.101562 261.746094 2078.714844 262.382812 2067.265625 268.328125 L 2058.175781 250.886719 C 2086.824219 236.144531 2105.9375 246.90625 2117.140625 258.699219 C 2132.960938 275.601562 2143.96875 307.046875 2149.914062 352.058594 C 2149.765625 352.597656 2156.546875 412.003906 2152.519531 418.636719 Z M 2152.519531 418.636719 " fill-opacity="1" fill-rule="nonzero"/><path fill="#ffffff" d="M 2306.609375 662.992188 C 2301.523438 662.914062 2296.46875 663.28125 2291.449219 664.09375 C 2286.425781 664.90625 2281.515625 666.152344 2276.710938 667.828125 C 2271.910156 669.503906 2267.289062 671.585938 2262.855469 674.074219 C 2258.417969 676.5625 2254.234375 679.421875 2250.300781 682.644531 C 2248.039062 684.953125 2245.679688 687.214844 2243.273438 689.378906 C 2240.066406 692.851562 2237.214844 696.597656 2234.714844 700.613281 C 2232.214844 704.628906 2230.117188 708.839844 2228.414062 713.253906 C 2226.710938 717.664062 2225.433594 722.195312 2224.585938 726.847656 C 2223.738281 731.5 2223.335938 736.191406 2223.371094 740.921875 C 2223.371094 783.867188 2260.714844 818.800781 2306.609375 818.800781 C 2352.503906 818.800781 2389.847656 783.867188 2389.847656 740.921875 C 2389.847656 697.976562 2352.550781 662.992188 2306.609375 662.992188 Z M 2306.609375 662.992188 " fill-opacity="1" fill-rule="nonzero"/><path fill="#ffffff" d="M 2238.0625 667.070312 C 2243.1875 661.664062 2247.835938 655.882812 2252.019531 649.722656 C 2289.066406 594.839844 2280.273438 523.886719 2232.363281 491.554688 C 2231.828125 491.199219 2231.335938 490.789062 2230.890625 490.324219 C 2222.4375 481.921875 2153.253906 446.496094 2084.464844 430.476562 C 2065.371094 425.796875 2045.992188 423.292969 2026.335938 422.960938 C 1970.371094 422.960938 1965.898438 452.441406 1964.425781 462.269531 C 1951.109375 550.417969 2050.167969 648.152344 2080.878906 676.011719 L 2081.515625 676.652344 C 2086.441406 682.050781 2091.929688 686.800781 2097.976562 690.898438 C 2101.890625 693.492188 2105.972656 695.785156 2110.226562 697.769531 C 2114.480469 699.753906 2118.855469 701.410156 2123.355469 702.742188 C 2127.855469 704.078125 2132.429688 705.066406 2137.082031 705.71875 C 2141.730469 706.367188 2146.398438 706.671875 2151.09375 706.625 C 2154.617188 706.554688 2158.132812 706.328125 2161.640625 705.945312 C 2165.144531 705.5625 2168.628906 705.027344 2172.085938 704.335938 C 2175.542969 703.644531 2178.964844 702.800781 2182.347656 701.808594 C 2185.730469 700.816406 2189.066406 699.675781 2192.347656 698.386719 C 2195.628906 697.097656 2198.851562 695.664062 2202.003906 694.089844 C 2205.160156 692.519531 2208.242188 690.808594 2211.246094 688.960938 C 2214.25 687.113281 2217.167969 685.136719 2219.996094 683.035156 C 2222.824219 680.929688 2225.554688 678.703125 2228.1875 676.355469 C 2231.277344 673.042969 2234.570312 669.949219 2238.0625 667.070312 Z M 2203.078125 574.203125 C 2202.289062 574.398438 2201.484375 574.496094 2200.671875 574.496094 C 2200.128906 574.496094 2199.59375 574.453125 2199.058594 574.367188 C 2198.523438 574.277344 2198 574.144531 2197.488281 573.972656 C 2196.972656 573.796875 2196.480469 573.582031 2196 573.324219 C 2195.523438 573.070312 2195.070312 572.773438 2194.644531 572.445312 C 2194.214844 572.113281 2193.816406 571.746094 2193.449219 571.351562 C 2193.078125 570.953125 2192.746094 570.527344 2192.449219 570.078125 C 2192.152344 569.625 2191.890625 569.152344 2191.671875 568.65625 C 2191.453125 568.160156 2191.273438 567.652344 2191.140625 567.125 L 2182.933594 535.039062 C 2182.769531 534.414062 2182.671875 533.777344 2182.632812 533.132812 C 2182.597656 532.484375 2182.621094 531.839844 2182.710938 531.199219 C 2182.800781 530.558594 2182.953125 529.933594 2183.164062 529.320312 C 2183.378906 528.710938 2183.648438 528.125 2183.976562 527.570312 C 2184.304688 527.011719 2184.6875 526.492188 2185.117188 526.007812 C 2185.546875 525.523438 2186.023438 525.089844 2186.539062 524.699219 C 2187.054688 524.308594 2187.605469 523.976562 2188.1875 523.695312 C 2188.773438 523.414062 2189.378906 523.191406 2190.003906 523.03125 C 2190.628906 522.871094 2191.265625 522.769531 2191.914062 522.734375 C 2192.558594 522.699219 2193.203125 522.726562 2193.84375 522.816406 C 2194.484375 522.90625 2195.109375 523.058594 2195.722656 523.273438 C 2196.332031 523.488281 2196.914062 523.761719 2197.472656 524.089844 C 2198.03125 524.421875 2198.550781 524.800781 2199.03125 525.234375 C 2199.511719 525.664062 2199.949219 526.140625 2200.335938 526.65625 C 2200.726562 527.175781 2201.058594 527.726562 2201.339844 528.308594 C 2201.617188 528.894531 2201.839844 529.5 2202 530.125 L 2210.203125 562.261719 C 2210.363281 562.886719 2210.457031 563.523438 2210.492188 564.167969 C 2210.523438 564.8125 2210.496094 565.453125 2210.402344 566.09375 C 2210.308594 566.730469 2210.152344 567.355469 2209.9375 567.964844 C 2209.71875 568.570312 2209.445312 569.152344 2209.117188 569.707031 C 2208.785156 570.261719 2208.402344 570.78125 2207.972656 571.257812 C 2207.539062 571.738281 2207.0625 572.171875 2206.542969 572.554688 C 2206.027344 572.941406 2205.476562 573.273438 2204.894531 573.550781 C 2204.308594 573.828125 2203.707031 574.042969 2203.078125 574.203125 Z M 2203.078125 574.203125 " fill-opacity="1" fill-rule="nonzero"/><path fill="#ffffff" d="M 2550.03125 750.75 C 2446.253906 750.75 2367.980469 791.628906 2367.980469 845.875 C 2367.980469 897.417969 2451.511719 941.003906 2550.03125 941.003906 C 2648.546875 941.003906 2732.128906 897.417969 2732.128906 845.875 C 2732.128906 794.332031 2648.746094 750.75 2550.03125 750.75 Z M 2550.03125 750.75 " fill-opacity="1" fill-rule="nonzero"/><path fill="#ffffff" d="M 2718.421875 1048.414062 L 2618.378906 1048.414062 C 2617.417969 1048.417969 2616.480469 1048.285156 2615.5625 1048.011719 C 2614.640625 1047.742188 2613.78125 1047.34375 2612.976562 1046.820312 C 2612.171875 1046.296875 2611.460938 1045.667969 2610.84375 1044.9375 C 2610.222656 1044.203125 2609.722656 1043.398438 2609.335938 1042.519531 L 2515.980469 828.433594 L 2422.078125 900.121094 L 2410.140625 884.496094 L 2514.011719 805.191406 C 2514.308594 804.964844 2514.617188 804.757812 2514.933594 804.566406 C 2515.253906 804.375 2515.582031 804.203125 2515.921875 804.046875 C 2516.257812 803.894531 2516.605469 803.757812 2516.957031 803.644531 C 2517.3125 803.53125 2517.671875 803.4375 2518.035156 803.363281 C 2518.398438 803.289062 2518.769531 803.234375 2519.136719 803.203125 C 2519.507812 803.171875 2519.878906 803.160156 2520.25 803.167969 C 2520.621094 803.179688 2520.992188 803.210938 2521.359375 803.261719 C 2521.730469 803.3125 2522.09375 803.386719 2522.453125 803.480469 C 2522.8125 803.574219 2523.167969 803.6875 2523.511719 803.820312 C 2523.859375 803.953125 2524.199219 804.105469 2524.527344 804.277344 C 2524.859375 804.449219 2525.175781 804.640625 2525.484375 804.847656 C 2525.792969 805.054688 2526.089844 805.28125 2526.371094 805.519531 C 2526.65625 805.761719 2526.921875 806.019531 2527.175781 806.292969 C 2527.429688 806.5625 2527.667969 806.847656 2527.886719 807.148438 C 2528.109375 807.445312 2528.3125 807.757812 2528.5 808.078125 C 2528.683594 808.402344 2528.851562 808.730469 2529 809.074219 L 2624.863281 1028.761719 L 2718.46875 1028.761719 Z M 2718.421875 1048.414062 " fill-opacity="1" fill-rule="nonzero"/><g clip-path="url(#217a28b92f)"><path fill="#ffffff" d="M 2440.996094 1123.199219 L 2378.644531 1123.199219 C 2378.109375 1123.199219 2377.582031 1123.152344 2377.054688 1123.066406 C 2376.53125 1122.976562 2376.015625 1122.847656 2375.511719 1122.675781 C 2375.007812 1122.503906 2374.519531 1122.289062 2374.050781 1122.039062 C 2373.582031 1121.789062 2373.132812 1121.5 2372.710938 1121.175781 C 2372.289062 1120.851562 2371.894531 1120.496094 2371.527344 1120.109375 C 2371.164062 1119.722656 2370.832031 1119.304688 2370.535156 1118.863281 C 2370.238281 1118.421875 2369.976562 1117.957031 2369.753906 1117.476562 C 2369.53125 1116.992188 2369.351562 1116.492188 2369.210938 1115.976562 L 2297.125 853.296875 L 2316.09375 848.085938 L 2386.160156 1103.59375 L 2440.996094 1103.59375 Z M 2440.996094 1123.199219 " fill-opacity="1" fill-rule="nonzero"/></g><g clip-path="url(#626fe68c9b)"><path fill="#e80303" d="M 2012.246094 1052.128906 L 1897.867188 1052.128906 L 1897.867188 1032.757812 L 2000.140625 1032.757812 L 2074.617188 880.511719 L 2139.796875 914.746094 L 2201.828125 804.871094 L 2218.679688 814.414062 L 2147.398438 940.605469 L 2083.285156 906.902344 Z M 2012.246094 1052.128906 " fill-opacity="1" fill-rule="nonzero"/></g><path fill="#e80303" d="M 2034.617188 401.449219 L 2016.652344 396.605469 C 2016.652344 363.96875 2010.261719 275.109375 1979.558594 256.175781 C 1971.617188 251.335938 1962.128906 251.914062 1950.503906 257.921875 L 1941.835938 240.679688 C 1970.40625 225.816406 1989.4375 236.660156 2000.382812 248.332031 C 2015.683594 264.699219 2026.386719 294.820312 2032.101562 337.820312 C 2032.148438 338.5 2038.734375 394.960938 2034.617188 401.449219 Z M 2034.617188 401.449219 " fill-opacity="1" fill-rule="nonzero"/><path fill="#e80303" d="M 2142.554688 426.242188 L 2124.589844 421.402344 C 2124.589844 387.503906 2118.101562 295.496094 2086.867188 276.464844 C 2079.070312 271.625 2069.824219 272.253906 2058.539062 278.113281 L 2049.582031 260.921875 C 2077.8125 246.394531 2096.648438 257 2107.691406 268.621094 C 2123.28125 285.28125 2134.128906 316.269531 2139.988281 360.628906 C 2139.84375 361.160156 2146.527344 419.707031 2142.554688 426.242188 Z M 2142.554688 426.242188 " fill-opacity="1" fill-rule="nonzero"/><path fill="#e80303" d="M 2294.414062 667.058594 C 2289.402344 666.980469 2284.421875 667.34375 2279.472656 668.144531 C 2274.523438 668.945312 2269.683594 670.171875 2264.949219 671.824219 C 2260.21875 673.476562 2255.664062 675.527344 2251.292969 677.980469 C 2246.921875 680.433594 2242.796875 683.25 2238.921875 686.425781 C 2236.691406 688.703125 2234.367188 690.929688 2231.996094 693.0625 C 2228.835938 696.488281 2226.023438 700.179688 2223.5625 704.132812 C 2221.101562 708.089844 2219.027344 712.242188 2217.351562 716.589844 C 2215.671875 720.9375 2214.414062 725.40625 2213.578125 729.988281 C 2212.746094 734.574219 2212.347656 739.199219 2212.382812 743.859375 C 2212.382812 786.179688 2249.1875 820.609375 2294.414062 820.609375 C 2339.644531 820.609375 2376.445312 786.179688 2376.445312 743.859375 C 2376.445312 701.535156 2339.691406 667.058594 2294.414062 667.058594 Z M 2294.414062 667.058594 " fill-opacity="1" fill-rule="nonzero"/><path fill="#e80303" d="M 2226.863281 671.078125 C 2231.910156 665.75 2236.496094 660.054688 2240.613281 653.980469 C 2277.128906 599.890625 2268.460938 529.96875 2221.246094 498.105469 C 2220.71875 497.753906 2220.234375 497.351562 2219.792969 496.894531 C 2211.464844 488.613281 2143.28125 453.699219 2075.488281 437.914062 C 2056.671875 433.300781 2037.574219 430.832031 2018.203125 430.503906 C 1963.046875 430.503906 1958.640625 459.558594 1957.1875 469.242188 C 1944.066406 556.117188 2041.6875 652.433594 2071.953125 679.890625 L 2072.582031 680.519531 C 2077.4375 685.839844 2082.84375 690.519531 2088.804688 694.5625 C 2092.660156 697.117188 2096.683594 699.375 2100.875 701.332031 C 2105.066406 703.285156 2109.382812 704.921875 2113.816406 706.234375 C 2118.253906 707.546875 2122.761719 708.523438 2127.339844 709.164062 C 2131.921875 709.804688 2136.527344 710.101562 2141.152344 710.058594 C 2144.625 709.988281 2148.089844 709.765625 2151.546875 709.386719 C 2155 709.011719 2158.433594 708.484375 2161.839844 707.800781 C 2165.25 707.121094 2168.621094 706.292969 2171.953125 705.3125 C 2175.289062 704.332031 2178.574219 703.210938 2181.808594 701.9375 C 2185.042969 700.667969 2188.214844 699.257812 2191.324219 697.707031 C 2194.4375 696.15625 2197.472656 694.472656 2200.433594 692.652344 C 2203.394531 690.832031 2206.269531 688.882812 2209.054688 686.808594 C 2211.84375 684.734375 2214.535156 682.542969 2217.128906 680.226562 C 2220.171875 676.964844 2223.417969 673.914062 2226.863281 671.078125 Z M 2192.382812 579.554688 C 2191.605469 579.746094 2190.8125 579.84375 2190.011719 579.84375 C 2189.476562 579.84375 2188.949219 579.804688 2188.421875 579.714844 C 2187.894531 579.628906 2187.378906 579.5 2186.871094 579.328125 C 2186.367188 579.15625 2185.878906 578.941406 2185.410156 578.691406 C 2184.9375 578.4375 2184.492188 578.148438 2184.070312 577.820312 C 2183.648438 577.496094 2183.253906 577.136719 2182.894531 576.746094 C 2182.53125 576.351562 2182.203125 575.933594 2181.90625 575.488281 C 2181.613281 575.042969 2181.359375 574.578125 2181.140625 574.089844 C 2180.925781 573.601562 2180.75 573.097656 2180.617188 572.582031 L 2172.53125 540.960938 C 2172.371094 540.34375 2172.269531 539.714844 2172.234375 539.078125 C 2172.199219 538.441406 2172.222656 537.808594 2172.3125 537.175781 C 2172.398438 536.542969 2172.550781 535.925781 2172.757812 535.324219 C 2172.96875 534.722656 2173.234375 534.148438 2173.558594 533.597656 C 2173.882812 533.046875 2174.257812 532.535156 2174.683594 532.058594 C 2175.105469 531.582031 2175.574219 531.152344 2176.082031 530.769531 C 2176.59375 530.386719 2177.136719 530.054688 2177.710938 529.777344 C 2178.285156 529.5 2178.882812 529.285156 2179.5 529.125 C 2180.117188 528.964844 2180.742188 528.867188 2181.378906 528.832031 C 2182.015625 528.796875 2182.652344 528.824219 2183.28125 528.914062 C 2183.914062 529.003906 2184.53125 529.152344 2185.132812 529.367188 C 2185.734375 529.578125 2186.308594 529.84375 2186.859375 530.167969 C 2187.410156 530.496094 2187.921875 530.871094 2188.394531 531.296875 C 2188.871094 531.722656 2189.300781 532.1875 2189.679688 532.699219 C 2190.0625 533.210938 2190.394531 533.753906 2190.667969 534.328125 C 2190.945312 534.902344 2191.160156 535.5 2191.320312 536.117188 L 2199.40625 567.789062 C 2199.5625 568.402344 2199.65625 569.03125 2199.6875 569.664062 C 2199.722656 570.300781 2199.691406 570.933594 2199.601562 571.5625 C 2199.507812 572.191406 2199.355469 572.808594 2199.144531 573.40625 C 2198.929688 574.007812 2198.660156 574.578125 2198.332031 575.125 C 2198.007812 575.671875 2197.632812 576.179688 2197.207031 576.652344 C 2196.777344 577.125 2196.308594 577.550781 2195.800781 577.933594 C 2195.289062 578.3125 2194.746094 578.636719 2194.171875 578.910156 C 2193.597656 579.183594 2193 579.398438 2192.382812 579.554688 Z M 2192.382812 579.554688 " fill-opacity="1" fill-rule="nonzero"/><path fill="#e80303" d="M 2534.308594 753.542969 C 2432.035156 753.542969 2354.898438 793.832031 2354.898438 847.292969 C 2354.898438 898.089844 2437.21875 941.042969 2534.308594 941.042969 C 2631.398438 941.042969 2713.769531 898.089844 2713.769531 847.292969 C 2713.769531 796.496094 2631.59375 753.542969 2534.308594 753.542969 Z M 2534.308594 753.542969 " fill-opacity="1" fill-rule="nonzero"/><path fill="#e80303" d="M 2700.257812 1046.898438 L 2601.667969 1046.898438 C 2600.722656 1046.902344 2599.796875 1046.769531 2598.890625 1046.5 C 2597.984375 1046.234375 2597.132812 1045.839844 2596.34375 1045.324219 C 2595.550781 1044.808594 2594.851562 1044.1875 2594.238281 1043.46875 C 2593.628906 1042.746094 2593.132812 1041.953125 2592.757812 1041.085938 L 2500.75 830.101562 L 2408.210938 900.753906 L 2396.445312 885.355469 L 2498.8125 807.195312 C 2499.105469 806.972656 2499.40625 806.769531 2499.722656 806.578125 C 2500.035156 806.390625 2500.359375 806.222656 2500.691406 806.070312 C 2501.027344 805.917969 2501.367188 805.785156 2501.714844 805.671875 C 2502.066406 805.558594 2502.417969 805.46875 2502.777344 805.394531 C 2503.136719 805.320312 2503.5 805.269531 2503.863281 805.238281 C 2504.230469 805.207031 2504.59375 805.195312 2504.960938 805.203125 C 2505.328125 805.214844 2505.691406 805.246094 2506.054688 805.296875 C 2506.417969 805.347656 2506.777344 805.417969 2507.128906 805.511719 C 2507.484375 805.601562 2507.832031 805.714844 2508.175781 805.84375 C 2508.519531 805.976562 2508.851562 806.128906 2509.175781 806.296875 C 2509.5 806.464844 2509.816406 806.652344 2510.121094 806.859375 C 2510.421875 807.0625 2510.714844 807.285156 2510.992188 807.523438 C 2511.269531 807.761719 2511.535156 808.011719 2511.785156 808.28125 C 2512.035156 808.550781 2512.269531 808.832031 2512.488281 809.125 C 2512.703125 809.417969 2512.90625 809.726562 2513.089844 810.042969 C 2513.273438 810.359375 2513.4375 810.6875 2513.582031 811.023438 L 2608.058594 1027.527344 L 2700.308594 1027.527344 Z M 2700.257812 1046.898438 " fill-opacity="1" fill-rule="nonzero"/><g clip-path="url(#72aa321d3e)"><path fill="#e80303" d="M 2426.855469 1120.597656 L 2365.40625 1120.597656 C 2364.878906 1120.597656 2364.359375 1120.550781 2363.839844 1120.464844 C 2363.324219 1120.378906 2362.816406 1120.25 2362.316406 1120.078125 C 2361.820312 1119.910156 2361.339844 1119.703125 2360.878906 1119.453125 C 2360.414062 1119.207031 2359.976562 1118.921875 2359.558594 1118.605469 C 2359.140625 1118.285156 2358.753906 1117.933594 2358.394531 1117.550781 C 2358.03125 1117.167969 2357.707031 1116.761719 2357.414062 1116.324219 C 2357.121094 1115.890625 2356.863281 1115.433594 2356.644531 1114.957031 C 2356.425781 1114.480469 2356.246094 1113.988281 2356.105469 1113.480469 L 2285.070312 854.605469 L 2303.761719 849.472656 L 2372.8125 1101.277344 L 2426.855469 1101.277344 Z M 2426.855469 1120.597656 " fill-opacity="1" fill-rule="nonzero"/></g><path fill="#000000" d="M 113.101562 1021.851562 L 0.671875 1021.851562 L 0.671875 1002.816406 L 101.203125 1002.816406 L 174.414062 853.179688 L 238.484375 886.828125 L 299.460938 778.839844 L 316.023438 788.21875 L 245.957031 912.246094 L 182.933594 879.121094 Z M 113.101562 1021.851562 " fill-opacity="1" fill-rule="nonzero"/><path fill="#000000" d="M 135.09375 382.34375 L 117.433594 377.582031 C 117.433594 345.503906 111.152344 258.171875 80.972656 239.5625 C 73.167969 234.804688 63.835938 235.375 52.414062 241.277344 L 43.890625 224.332031 C 71.976562 209.722656 90.683594 220.382812 101.441406 231.851562 C 116.484375 247.9375 127.003906 277.542969 132.621094 319.804688 C 132.667969 320.472656 139.140625 375.964844 135.09375 382.34375 Z M 135.09375 382.34375 " fill-opacity="1" fill-rule="nonzero"/><path fill="#000000" d="M 241.195312 406.710938 L 223.535156 401.949219 C 223.535156 368.636719 217.15625 278.207031 186.457031 259.503906 C 178.792969 254.746094 169.699219 255.363281 158.609375 261.121094 L 149.804688 244.226562 C 177.554688 229.949219 196.070312 240.371094 206.921875 251.792969 C 222.25 268.167969 232.914062 298.625 238.671875 342.222656 C 238.53125 342.746094 245.097656 400.285156 241.195312 406.710938 Z M 241.195312 406.710938 " fill-opacity="1" fill-rule="nonzero"/><path fill="#000000" d="M 390.472656 643.390625 C 385.542969 643.316406 380.648438 643.671875 375.785156 644.460938 C 370.921875 645.246094 366.160156 646.453125 361.507812 648.078125 C 356.855469 649.699219 352.382812 651.71875 348.085938 654.128906 C 343.785156 656.539062 339.730469 659.304688 335.921875 662.429688 C 333.730469 664.664062 331.445312 666.855469 329.113281 668.949219 C 326.007812 672.316406 323.246094 675.945312 320.824219 679.832031 C 318.402344 683.722656 316.367188 687.800781 314.71875 692.074219 C 313.070312 696.347656 311.832031 700.738281 311.011719 705.242188 C 310.191406 709.75 309.800781 714.292969 309.835938 718.875 C 309.835938 760.46875 346.011719 794.308594 390.472656 794.308594 C 434.929688 794.308594 471.105469 760.46875 471.105469 718.875 C 471.105469 677.277344 434.976562 643.390625 390.472656 643.390625 Z M 390.472656 643.390625 " fill-opacity="1" fill-rule="nonzero"/><path fill="#000000" d="M 324.070312 647.339844 C 329.03125 642.109375 333.535156 636.507812 337.585938 630.539062 C 373.476562 577.378906 364.957031 508.65625 318.546875 477.339844 C 318.027344 476.992188 317.550781 476.597656 317.117188 476.148438 C 308.933594 468.011719 241.910156 433.695312 175.269531 418.179688 C 156.769531 413.648438 138 411.21875 118.957031 410.898438 C 64.742188 410.898438 60.410156 439.453125 58.980469 448.972656 C 46.082031 534.355469 142.042969 629.019531 171.792969 656.003906 L 172.414062 656.621094 C 177.183594 661.851562 182.5 666.453125 188.359375 670.425781 C 192.148438 672.9375 196.105469 675.152344 200.226562 677.074219 C 204.34375 679 208.585938 680.605469 212.945312 681.894531 C 217.304688 683.1875 221.738281 684.144531 226.242188 684.777344 C 230.742188 685.40625 235.269531 685.699219 239.816406 685.652344 C 246.660156 685.515625 253.4375 684.777344 260.152344 683.4375 C 266.867188 682.097656 273.410156 680.175781 279.78125 677.675781 C 286.152344 675.171875 292.257812 672.128906 298.089844 668.546875 C 303.921875 664.960938 309.390625 660.890625 314.5 656.335938 C 317.492188 653.128906 320.683594 650.128906 324.070312 647.339844 Z M 290.175781 557.390625 C 289.410156 557.578125 288.632812 557.675781 287.84375 557.675781 C 287.320312 557.675781 286.796875 557.632812 286.28125 557.550781 C 285.761719 557.464844 285.257812 557.335938 284.757812 557.167969 C 284.261719 557 283.78125 556.789062 283.320312 556.542969 C 282.859375 556.292969 282.417969 556.007812 282.003906 555.6875 C 281.589844 555.367188 281.203125 555.011719 280.847656 554.628906 C 280.488281 554.242188 280.167969 553.832031 279.878906 553.394531 C 279.589844 552.957031 279.339844 552.496094 279.125 552.019531 C 278.914062 551.539062 278.742188 551.042969 278.609375 550.535156 L 270.660156 519.457031 C 270.503906 518.851562 270.40625 518.234375 270.371094 517.609375 C 270.332031 516.984375 270.359375 516.359375 270.445312 515.738281 C 270.53125 515.117188 270.679688 514.511719 270.886719 513.921875 C 271.09375 513.328125 271.355469 512.761719 271.671875 512.222656 C 271.992188 511.679688 272.359375 511.175781 272.777344 510.710938 C 273.195312 510.242188 273.652344 509.820312 274.152344 509.441406 C 274.65625 509.066406 275.1875 508.742188 275.753906 508.46875 C 276.316406 508.195312 276.902344 507.984375 277.511719 507.824219 C 278.117188 507.667969 278.734375 507.574219 279.359375 507.539062 C 279.984375 507.503906 280.609375 507.53125 281.230469 507.617188 C 281.851562 507.707031 282.457031 507.855469 283.050781 508.0625 C 283.640625 508.269531 284.207031 508.535156 284.746094 508.851562 C 285.285156 509.171875 285.789062 509.539062 286.253906 509.960938 C 286.722656 510.378906 287.144531 510.835938 287.519531 511.339844 C 287.894531 511.839844 288.21875 512.375 288.492188 512.941406 C 288.761719 513.503906 288.976562 514.089844 289.128906 514.699219 L 297.078125 545.824219 C 297.234375 546.429688 297.324219 547.046875 297.359375 547.671875 C 297.390625 548.296875 297.359375 548.917969 297.269531 549.535156 C 297.179688 550.15625 297.03125 550.757812 296.820312 551.347656 C 296.609375 551.9375 296.347656 552.5 296.027344 553.039062 C 295.703125 553.574219 295.335938 554.074219 294.914062 554.539062 C 294.496094 555.003906 294.035156 555.421875 293.535156 555.796875 C 293.03125 556.167969 292.5 556.488281 291.933594 556.757812 C 291.371094 557.027344 290.785156 557.238281 290.175781 557.390625 Z M 290.175781 557.390625 " fill-opacity="1" fill-rule="nonzero"/><path fill="#000000" d="M 626.285156 728.390625 C 525.753906 728.390625 449.925781 767.988281 449.925781 820.53125 C 449.925781 870.457031 530.84375 912.671875 626.285156 912.671875 C 721.722656 912.671875 802.691406 870.457031 802.691406 820.53125 C 802.691406 770.609375 721.914062 728.390625 626.285156 728.390625 Z M 626.285156 728.390625 " fill-opacity="1" fill-rule="nonzero"/><path fill="#000000" d="M 789.410156 1016.710938 L 692.496094 1016.710938 C 691.566406 1016.714844 690.65625 1016.585938 689.765625 1016.320312 C 688.875 1016.058594 688.042969 1015.671875 687.261719 1015.167969 C 686.484375 1014.660156 685.796875 1014.050781 685.195312 1013.339844 C 684.597656 1012.632812 684.109375 1011.851562 683.738281 1011 L 593.296875 803.636719 L 502.332031 873.074219 L 490.765625 857.941406 L 591.394531 781.125 C 591.679688 780.90625 591.976562 780.703125 592.285156 780.519531 C 592.59375 780.335938 592.914062 780.167969 593.242188 780.019531 C 593.570312 779.867188 593.902344 779.738281 594.246094 779.628906 C 594.589844 779.515625 594.9375 779.425781 595.289062 779.355469 C 595.644531 779.28125 596 779.230469 596.359375 779.199219 C 596.714844 779.167969 597.074219 779.15625 597.4375 779.167969 C 597.796875 779.175781 598.15625 779.207031 598.511719 779.257812 C 598.867188 779.308594 599.21875 779.378906 599.570312 779.46875 C 599.917969 779.558594 600.261719 779.667969 600.597656 779.796875 C 600.933594 779.925781 601.261719 780.074219 601.578125 780.242188 C 601.898438 780.40625 602.207031 780.589844 602.507812 780.792969 C 602.804688 780.992188 603.089844 781.210938 603.367188 781.445312 C 603.640625 781.679688 603.898438 781.925781 604.144531 782.191406 C 604.390625 782.453125 604.621094 782.730469 604.835938 783.019531 C 605.050781 783.308594 605.246094 783.609375 605.425781 783.921875 C 605.605469 784.234375 605.769531 784.554688 605.910156 784.886719 L 698.78125 997.675781 L 789.460938 997.675781 Z M 789.410156 1016.710938 " fill-opacity="1" fill-rule="nonzero"/><g clip-path="url(#81e8d0cb82)"><path fill="#000000" d="M 520.660156 1089.148438 L 460.253906 1089.148438 C 459.738281 1089.144531 459.226562 1089.101562 458.714844 1089.015625 C 458.207031 1088.929688 457.707031 1088.804688 457.21875 1088.636719 C 456.730469 1088.472656 456.257812 1088.265625 455.804688 1088.023438 C 455.347656 1087.78125 454.917969 1087.5 454.507812 1087.1875 C 454.097656 1086.875 453.714844 1086.53125 453.363281 1086.152344 C 453.007812 1085.777344 452.6875 1085.375 452.398438 1084.949219 C 452.109375 1084.519531 451.859375 1084.070312 451.644531 1083.601562 C 451.425781 1083.132812 451.25 1082.648438 451.113281 1082.152344 L 381.285156 827.71875 L 399.660156 822.675781 L 467.535156 1070.160156 L 520.660156 1070.160156 Z M 520.660156 1089.148438 " fill-opacity="1" fill-rule="nonzero"/></g><path fill="#000000" d="M 1057.648438 1014.128906 L 945.214844 1014.128906 L 945.214844 995.09375 L 1045.746094 995.09375 L 1118.957031 845.460938 L 1183.027344 879.109375 L 1244.003906 771.121094 L 1260.566406 780.496094 L 1190.5 904.523438 L 1127.476562 871.398438 Z M 1057.648438 1014.128906 " fill-opacity="1" fill-rule="nonzero"/><path fill="#000000" d="M 1079.636719 374.621094 L 1061.980469 369.863281 C 1061.980469 337.785156 1055.695312 250.449219 1025.515625 231.839844 C 1017.710938 227.082031 1008.378906 227.652344 996.957031 233.554688 L 988.4375 216.613281 C 1016.519531 202 1035.226562 212.660156 1045.984375 224.132812 C 1061.027344 240.21875 1071.546875 269.820312 1077.164062 312.082031 C 1077.210938 312.75 1083.683594 368.242188 1079.636719 374.621094 Z M 1079.636719 374.621094 " fill-opacity="1" fill-rule="nonzero"/><path fill="#000000" d="M 1185.738281 398.988281 L 1168.082031 394.230469 C 1168.082031 360.914062 1161.703125 270.488281 1131 251.78125 C 1123.335938 247.023438 1114.246094 247.640625 1103.152344 253.402344 L 1094.347656 236.503906 C 1122.097656 222.226562 1140.613281 232.648438 1151.46875 244.074219 C 1166.796875 260.445312 1177.457031 290.90625 1183.21875 334.5 C 1183.074219 335.023438 1189.644531 392.5625 1185.738281 398.988281 Z M 1185.738281 398.988281 " fill-opacity="1" fill-rule="nonzero"/><path fill="#000000" d="M 1335.015625 635.667969 C 1330.089844 635.59375 1325.191406 635.953125 1320.328125 636.738281 C 1315.464844 637.527344 1310.707031 638.730469 1306.054688 640.355469 C 1301.402344 641.976562 1296.925781 643.996094 1292.628906 646.40625 C 1288.332031 648.816406 1284.277344 651.582031 1280.464844 654.707031 C 1278.277344 656.945312 1275.992188 659.132812 1273.660156 661.226562 C 1270.550781 664.59375 1267.789062 668.222656 1265.367188 672.109375 C 1262.949219 676 1260.914062 680.082031 1259.261719 684.351562 C 1257.613281 688.625 1256.378906 693.015625 1255.554688 697.523438 C 1254.734375 702.027344 1254.34375 706.570312 1254.378906 711.152344 C 1254.378906 752.75 1290.558594 786.585938 1335.015625 786.585938 C 1379.472656 786.585938 1415.652344 752.75 1415.652344 711.152344 C 1415.652344 669.554688 1379.523438 635.667969 1335.015625 635.667969 Z M 1335.015625 635.667969 " fill-opacity="1" fill-rule="nonzero"/><path fill="#000000" d="M 1268.613281 639.621094 C 1273.574219 634.386719 1278.082031 628.785156 1282.132812 622.820312 C 1318.023438 569.65625 1309.5 500.933594 1263.089844 469.617188 C 1262.570312 469.273438 1262.097656 468.875 1261.664062 468.425781 C 1253.476562 460.289062 1186.453125 425.972656 1119.8125 410.457031 C 1101.316406 405.925781 1082.542969 403.5 1063.5 403.175781 C 1009.285156 403.175781 1004.953125 431.734375 1003.523438 441.25 C 990.625 526.632812 1086.589844 621.296875 1116.339844 648.28125 L 1116.957031 648.898438 C 1121.730469 654.128906 1127.042969 658.730469 1132.902344 662.703125 C 1136.695312 665.214844 1140.648438 667.433594 1144.769531 669.355469 C 1148.890625 671.277344 1153.128906 672.882812 1157.488281 674.175781 C 1161.851562 675.464844 1166.28125 676.425781 1170.785156 677.054688 C 1175.289062 677.683594 1179.8125 677.976562 1184.359375 677.933594 C 1191.203125 677.792969 1197.984375 677.054688 1204.695312 675.714844 C 1211.410156 674.375 1217.953125 672.453125 1224.324219 669.953125 C 1230.699219 667.453125 1236.800781 664.410156 1242.632812 660.824219 C 1248.464844 657.238281 1253.933594 653.167969 1259.046875 648.613281 C 1262.035156 645.40625 1265.226562 642.40625 1268.613281 639.621094 Z M 1234.722656 549.667969 C 1233.957031 549.859375 1233.179688 549.953125 1232.390625 549.953125 C 1231.863281 549.953125 1231.34375 549.914062 1230.824219 549.828125 C 1230.308594 549.742188 1229.800781 549.613281 1229.304688 549.445312 C 1228.804688 549.277344 1228.328125 549.066406 1227.863281 548.820312 C 1227.402344 548.570312 1226.964844 548.285156 1226.546875 547.964844 C 1226.132812 547.644531 1225.746094 547.292969 1225.390625 546.90625 C 1225.035156 546.523438 1224.710938 546.109375 1224.421875 545.671875 C 1224.132812 545.234375 1223.882812 544.777344 1223.671875 544.296875 C 1223.457031 543.816406 1223.285156 543.324219 1223.152344 542.816406 L 1215.203125 511.738281 C 1215.046875 511.128906 1214.949219 510.511719 1214.914062 509.886719 C 1214.878906 509.261719 1214.902344 508.636719 1214.988281 508.019531 C 1215.078125 507.398438 1215.222656 506.789062 1215.429688 506.199219 C 1215.636719 505.605469 1215.898438 505.039062 1216.214844 504.5 C 1216.535156 503.960938 1216.902344 503.457031 1217.320312 502.988281 C 1217.738281 502.519531 1218.195312 502.097656 1218.699219 501.722656 C 1219.199219 501.34375 1219.730469 501.019531 1220.296875 500.746094 C 1220.859375 500.476562 1221.445312 500.261719 1222.054688 500.105469 C 1222.660156 499.949219 1223.277344 499.851562 1223.902344 499.816406 C 1224.53125 499.78125 1225.152344 499.808594 1225.773438 499.898438 C 1226.394531 499.984375 1227 500.132812 1227.59375 500.339844 C 1228.183594 500.546875 1228.75 500.8125 1229.289062 501.132812 C 1229.828125 501.449219 1230.332031 501.820312 1230.800781 502.238281 C 1231.265625 502.65625 1231.6875 503.117188 1232.0625 503.617188 C 1232.441406 504.121094 1232.765625 504.652344 1233.035156 505.21875 C 1233.304688 505.785156 1233.519531 506.371094 1233.675781 506.976562 L 1241.625 538.101562 C 1241.777344 538.710938 1241.871094 539.324219 1241.902344 539.949219 C 1241.933594 540.574219 1241.90625 541.195312 1241.8125 541.816406 C 1241.722656 542.433594 1241.574219 543.039062 1241.363281 543.625 C 1241.15625 544.214844 1240.890625 544.777344 1240.570312 545.316406 C 1240.25 545.851562 1239.878906 546.355469 1239.460938 546.816406 C 1239.039062 547.28125 1238.582031 547.699219 1238.078125 548.074219 C 1237.578125 548.449219 1237.042969 548.769531 1236.476562 549.035156 C 1235.914062 549.304688 1235.328125 549.515625 1234.722656 549.667969 Z M 1234.722656 549.667969 " fill-opacity="1" fill-rule="nonzero"/><path fill="#000000" d="M 1570.828125 720.671875 C 1470.296875 720.671875 1394.46875 760.269531 1394.46875 812.8125 C 1394.46875 862.738281 1475.390625 904.953125 1570.828125 904.953125 C 1666.269531 904.953125 1747.238281 862.738281 1747.238281 812.8125 C 1747.238281 762.886719 1666.457031 720.671875 1570.828125 720.671875 Z M 1570.828125 720.671875 " fill-opacity="1" fill-rule="nonzero"/><path fill="#000000" d="M 1733.957031 1008.988281 L 1637.042969 1008.988281 C 1636.113281 1008.992188 1635.203125 1008.863281 1634.3125 1008.601562 C 1633.421875 1008.335938 1632.585938 1007.953125 1631.808594 1007.445312 C 1631.03125 1006.9375 1630.339844 1006.328125 1629.738281 1005.621094 C 1629.140625 1004.910156 1628.65625 1004.128906 1628.28125 1003.277344 L 1537.839844 795.914062 L 1446.878906 865.355469 L 1435.308594 850.21875 L 1535.9375 773.402344 C 1536.222656 773.183594 1536.519531 772.984375 1536.828125 772.796875 C 1537.140625 772.613281 1537.457031 772.445312 1537.785156 772.296875 C 1538.113281 772.148438 1538.449219 772.015625 1538.789062 771.90625 C 1539.132812 771.796875 1539.480469 771.703125 1539.835938 771.632812 C 1540.1875 771.5625 1540.542969 771.507812 1540.902344 771.476562 C 1541.261719 771.445312 1541.621094 771.4375 1541.980469 771.445312 C 1542.339844 771.457031 1542.699219 771.484375 1543.054688 771.535156 C 1543.410156 771.585938 1543.765625 771.65625 1544.113281 771.746094 C 1544.460938 771.835938 1544.804688 771.945312 1545.140625 772.074219 C 1545.476562 772.203125 1545.804688 772.351562 1546.125 772.519531 C 1546.445312 772.683594 1546.753906 772.871094 1547.050781 773.070312 C 1547.347656 773.273438 1547.636719 773.488281 1547.910156 773.722656 C 1548.183594 773.957031 1548.441406 774.207031 1548.6875 774.46875 C 1548.933594 774.734375 1549.164062 775.007812 1549.378906 775.296875 C 1549.59375 775.589844 1549.789062 775.890625 1549.96875 776.199219 C 1550.148438 776.511719 1550.3125 776.832031 1550.457031 777.164062 L 1643.324219 989.953125 L 1734.003906 989.953125 Z M 1733.957031 1008.988281 " fill-opacity="1" fill-rule="nonzero"/><g clip-path="url(#fbc792db0a)"><path fill="#000000" d="M 1465.203125 1081.425781 L 1404.796875 1081.425781 C 1404.28125 1081.425781 1403.769531 1081.382812 1403.261719 1081.296875 C 1402.75 1081.210938 1402.253906 1081.082031 1401.765625 1080.917969 C 1401.277344 1080.75 1400.804688 1080.546875 1400.347656 1080.300781 C 1399.894531 1080.058594 1399.460938 1079.78125 1399.050781 1079.464844 C 1398.640625 1079.152344 1398.257812 1078.808594 1397.90625 1078.433594 C 1397.550781 1078.054688 1397.230469 1077.652344 1396.941406 1077.226562 C 1396.65625 1076.796875 1396.402344 1076.351562 1396.1875 1075.878906 C 1395.972656 1075.410156 1395.796875 1074.929688 1395.660156 1074.429688 L 1325.828125 819.996094 L 1344.203125 814.953125 L 1412.082031 1062.4375 L 1465.203125 1062.4375 Z M 1465.203125 1081.425781 " fill-opacity="1" fill-rule="nonzero"/></g><path fill="#000000" d="M 2016.644531 1032.925781 L 1904.214844 1032.925781 L 1904.214844 1013.890625 L 2004.746094 1013.890625 L 2077.957031 864.257812 L 2142.027344 897.90625 L 2203.003906 789.914062 L 2219.566406 799.292969 L 2149.5 923.320312 L 2086.476562 890.195312 Z M 2016.644531 1032.925781 " fill-opacity="1" fill-rule="nonzero"/><path fill="#000000" d="M 2038.636719 393.417969 L 2020.976562 388.65625 C 2020.976562 356.578125 2014.695312 269.246094 1984.515625 250.636719 C 1976.710938 245.878906 1967.378906 246.449219 1955.957031 252.351562 L 1947.433594 235.40625 C 1975.519531 220.796875 1994.226562 231.457031 2004.984375 242.925781 C 2020.027344 259.015625 2030.546875 288.617188 2036.164062 330.878906 C 2036.210938 331.546875 2042.683594 387.039062 2038.636719 393.417969 Z M 2038.636719 393.417969 " fill-opacity="1" fill-rule="nonzero"/><path fill="#000000" d="M 2144.738281 417.785156 L 2127.078125 413.023438 C 2127.078125 379.710938 2120.699219 289.28125 2090 270.578125 C 2082.335938 265.820312 2073.242188 266.4375 2062.152344 272.195312 L 2053.347656 255.300781 C 2081.097656 241.023438 2099.613281 251.445312 2110.464844 262.867188 C 2125.792969 279.242188 2136.457031 309.699219 2142.214844 353.296875 C 2142.074219 353.820312 2148.640625 411.359375 2144.738281 417.785156 Z M 2144.738281 417.785156 " fill-opacity="1" fill-rule="nonzero"/><path fill="#000000" d="M 2294.015625 654.464844 C 2289.085938 654.390625 2284.191406 654.75 2279.328125 655.535156 C 2274.464844 656.320312 2269.703125 657.527344 2265.050781 659.152344 C 2260.398438 660.773438 2255.925781 662.792969 2251.628906 665.203125 C 2247.328125 667.613281 2243.273438 670.378906 2239.464844 673.503906 C 2237.273438 675.738281 2234.988281 677.929688 2232.65625 680.023438 C 2229.550781 683.390625 2226.789062 687.019531 2224.367188 690.90625 C 2221.945312 694.796875 2219.910156 698.875 2218.261719 703.148438 C 2216.613281 707.421875 2215.375 711.8125 2214.554688 716.320312 C 2213.734375 720.824219 2213.34375 725.367188 2213.378906 729.949219 C 2213.378906 771.542969 2249.554688 805.382812 2294.015625 805.382812 C 2338.472656 805.382812 2374.648438 771.542969 2374.648438 729.949219 C 2374.648438 688.351562 2338.519531 654.464844 2294.015625 654.464844 Z M 2294.015625 654.464844 " fill-opacity="1" fill-rule="nonzero"/><path fill="#000000" d="M 2227.613281 658.414062 C 2232.574219 653.183594 2237.078125 647.582031 2241.128906 641.617188 C 2277.019531 588.453125 2268.5 519.730469 2222.089844 488.414062 C 2221.570312 488.066406 2221.09375 487.671875 2220.660156 487.222656 C 2212.476562 479.085938 2145.453125 444.769531 2078.8125 429.253906 C 2060.3125 424.722656 2041.542969 422.292969 2022.5 421.972656 C 1968.285156 421.972656 1963.953125 450.527344 1962.523438 460.046875 C 1949.625 545.429688 2045.585938 640.09375 2075.335938 667.078125 L 2075.957031 667.695312 C 2080.726562 672.925781 2086.042969 677.527344 2091.902344 681.5 C 2095.691406 684.011719 2099.648438 686.226562 2103.769531 688.152344 C 2107.886719 690.074219 2112.128906 691.679688 2116.488281 692.96875 C 2120.847656 694.261719 2125.28125 695.222656 2129.785156 695.851562 C 2134.285156 696.480469 2138.8125 696.773438 2143.359375 696.726562 C 2150.203125 696.589844 2156.980469 695.851562 2163.695312 694.511719 C 2170.410156 693.171875 2176.953125 691.25 2183.324219 688.75 C 2189.695312 686.246094 2195.800781 683.203125 2201.632812 679.621094 C 2207.464844 676.035156 2212.933594 671.964844 2218.042969 667.410156 C 2221.035156 664.203125 2224.226562 661.203125 2227.613281 658.414062 Z M 2193.71875 568.464844 C 2192.953125 568.652344 2192.175781 568.75 2191.386719 568.75 C 2190.863281 568.75 2190.339844 568.707031 2189.824219 568.625 C 2189.304688 568.539062 2188.800781 568.410156 2188.300781 568.242188 C 2187.804688 568.074219 2187.324219 567.863281 2186.863281 567.617188 C 2186.402344 567.367188 2185.960938 567.082031 2185.546875 566.761719 C 2185.132812 566.441406 2184.746094 566.089844 2184.390625 565.703125 C 2184.03125 565.320312 2183.710938 564.90625 2183.421875 564.46875 C 2183.132812 564.03125 2182.882812 563.570312 2182.667969 563.09375 C 2182.457031 562.613281 2182.285156 562.121094 2182.152344 561.609375 L 2174.203125 530.53125 C 2174.046875 529.925781 2173.949219 529.308594 2173.914062 528.683594 C 2173.875 528.058594 2173.902344 527.433594 2173.988281 526.8125 C 2174.074219 526.191406 2174.222656 525.585938 2174.429688 524.996094 C 2174.636719 524.402344 2174.898438 523.835938 2175.214844 523.296875 C 2175.535156 522.757812 2175.902344 522.253906 2176.320312 521.785156 C 2176.738281 521.316406 2177.195312 520.894531 2177.695312 520.515625 C 2178.199219 520.140625 2178.730469 519.816406 2179.296875 519.542969 C 2179.859375 519.269531 2180.445312 519.058594 2181.054688 518.902344 C 2181.660156 518.746094 2182.277344 518.648438 2182.902344 518.613281 C 2183.527344 518.578125 2184.152344 518.605469 2184.773438 518.695312 C 2185.394531 518.78125 2186 518.929688 2186.59375 519.136719 C 2187.183594 519.34375 2187.75 519.609375 2188.289062 519.925781 C 2188.828125 520.246094 2189.332031 520.617188 2189.796875 521.035156 C 2190.265625 521.453125 2190.6875 521.914062 2191.0625 522.414062 C 2191.4375 522.914062 2191.761719 523.449219 2192.035156 524.015625 C 2192.304688 524.578125 2192.519531 525.167969 2192.671875 525.773438 L 2200.621094 556.898438 C 2200.777344 557.503906 2200.867188 558.121094 2200.902344 558.746094 C 2200.933594 559.371094 2200.902344 559.992188 2200.8125 560.609375 C 2200.722656 561.230469 2200.574219 561.832031 2200.363281 562.421875 C 2200.152344 563.011719 2199.890625 563.574219 2199.570312 564.113281 C 2199.246094 564.648438 2198.878906 565.148438 2198.457031 565.613281 C 2198.039062 566.078125 2197.578125 566.496094 2197.078125 566.871094 C 2196.574219 567.242188 2196.042969 567.566406 2195.476562 567.832031 C 2194.914062 568.101562 2194.328125 568.3125 2193.71875 568.464844 Z M 2193.71875 568.464844 " fill-opacity="1" fill-rule="nonzero"/><path fill="#000000" d="M 2529.828125 739.46875 C 2429.296875 739.46875 2353.46875 779.0625 2353.46875 831.605469 C 2353.46875 881.53125 2434.386719 923.746094 2529.828125 923.746094 C 2625.265625 923.746094 2706.234375 881.53125 2706.234375 831.605469 C 2706.234375 781.683594 2625.457031 739.46875 2529.828125 739.46875 Z M 2529.828125 739.46875 " fill-opacity="1" fill-rule="nonzero"/><path fill="#000000" d="M 2692.953125 1027.785156 L 2596.039062 1027.785156 C 2595.109375 1027.789062 2594.199219 1027.660156 2593.308594 1027.394531 C 2592.417969 1027.132812 2591.585938 1026.746094 2590.804688 1026.242188 C 2590.027344 1025.734375 2589.339844 1025.125 2588.738281 1024.414062 C 2588.140625 1023.707031 2587.652344 1022.925781 2587.28125 1022.074219 L 2496.839844 814.710938 L 2405.875 884.148438 L 2394.308594 869.015625 L 2494.9375 792.199219 C 2495.222656 791.980469 2495.519531 791.777344 2495.828125 791.59375 C 2496.136719 791.410156 2496.457031 791.242188 2496.785156 791.09375 C 2497.113281 790.941406 2497.445312 790.8125 2497.789062 790.703125 C 2498.132812 790.589844 2498.480469 790.5 2498.832031 790.429688 C 2499.1875 790.355469 2499.542969 790.304688 2499.902344 790.273438 C 2500.257812 790.242188 2500.617188 790.230469 2500.980469 790.242188 C 2501.339844 790.25 2501.699219 790.28125 2502.054688 790.332031 C 2502.410156 790.382812 2502.761719 790.453125 2503.113281 790.542969 C 2503.460938 790.632812 2503.804688 790.742188 2504.140625 790.871094 C 2504.476562 791 2504.804688 791.148438 2505.121094 791.316406 C 2505.441406 791.480469 2505.75 791.664062 2506.050781 791.867188 C 2506.347656 792.066406 2506.632812 792.285156 2506.910156 792.519531 C 2507.183594 792.753906 2507.441406 793.003906 2507.6875 793.265625 C 2507.933594 793.527344 2508.164062 793.804688 2508.378906 794.09375 C 2508.59375 794.382812 2508.789062 794.683594 2508.96875 794.996094 C 2509.148438 795.308594 2509.3125 795.628906 2509.453125 795.960938 L 2602.324219 1008.75 L 2693.003906 1008.75 Z M 2692.953125 1027.785156 " fill-opacity="1" fill-rule="nonzero"/><g clip-path="url(#dd526627c6)"><path fill="#000000" d="M 2424.203125 1100.222656 L 2363.796875 1100.222656 C 2363.28125 1100.222656 2362.769531 1100.175781 2362.257812 1100.089844 C 2361.75 1100.007812 2361.25 1099.878906 2360.761719 1099.714844 C 2360.273438 1099.546875 2359.800781 1099.339844 2359.347656 1099.097656 C 2358.890625 1098.855469 2358.460938 1098.574219 2358.050781 1098.261719 C 2357.640625 1097.949219 2357.257812 1097.605469 2356.90625 1097.226562 C 2356.550781 1096.851562 2356.230469 1096.449219 2355.941406 1096.023438 C 2355.652344 1095.59375 2355.402344 1095.144531 2355.1875 1094.675781 C 2354.96875 1094.207031 2354.792969 1093.722656 2354.65625 1093.226562 L 2284.828125 838.792969 L 2303.203125 833.75 L 2371.078125 1081.234375 L 2424.203125 1081.234375 Z M 2424.203125 1100.222656 " fill-opacity="1" fill-rule="nonzero"/></g></svg>